<?xml version="1.0" encoding="UTF-8" standalone="no"?>
<!DOCTYPE svg PUBLIC "-//W3C//DTD SVG 1.1//EN" "http://www.w3.org/Graphics/SVG/1.1/DTD/svg11.dtd">
<svg width="100%" height="100%" viewBox="0 0 265 246" version="1.1" xmlns="http://www.w3.org/2000/svg" xmlns:xlink="http://www.w3.org/1999/xlink" xml:space="preserve" xmlns:serif="http://www.serif.com/" style="fill-rule:evenodd;clip-rule:evenodd;">
    <g id="Group_183">
        <g id="Path_876" transform="matrix(1,0,0,1,-4.931,-3.275)">
            <path d="M262.267,124.312L261.415,124.921L260.775,125.53L259.711,125.622L258.828,125.713L258.737,126.443L259.011,127.478L259.711,127.417L259.071,128.178L258.949,128.725L257.949,129.182L257.189,128.908L256.789,128.238L256.149,128.998L255.51,129.79L255.21,130.337L254.54,130.763L254.083,129.728L254.023,129.028L253.597,128.358L253.197,127.871L252.558,127.049L251.458,126.806L249.876,126.776L249.298,126.476L248.568,126.201L247.868,126.262L247.655,125.745L246.773,125.836L245.373,126.323L244.126,126.111L242.848,125.711L242.301,125.742L241.54,126.898L240.476,126.806L240.384,127.906L239.684,127.967L239.745,128.484L238.893,128.941L187.168,128.88L187.168,172.786L187.228,172.999L188.328,172.817L190.128,173.669L191.128,172.969L192.828,173.243L194.897,173.486L196.571,174.886L197.058,176.864L198.123,177.807L198.153,176.864L199.187,176.346L200.13,176.559L201.804,176.681L202.778,177.081L203.387,179.759L204.787,181.768L205.887,181.798L207.47,182.468L209.386,184.202L209.751,185.449L210.999,186.362L212.581,187.031L213.858,186.849L213.615,185.419L214.102,184.78L214.802,184.688L215.624,185.113L217.418,184.839L218.818,185.539L219.7,185.417L220.887,185.964L222.043,186.177L222.682,185.508L223.534,185.208L224.569,185.786L226.455,186.243L227.885,185.843L228.92,185.509L229.65,185.387L230.35,185.112L231.232,184.778L232.601,185.508L232.419,186.634L232.966,187.821L233.666,188.821L234,189.886L233.848,191.195L241.82,195.15L243.493,195.272L244.193,195.911L244.832,195.911L244.68,196.337L244.802,196.428L245.867,195.911L245.654,194.238L246.08,194.025L246.505,194.025L246.08,192.99L245.258,192.778L245.658,191.956L245.258,190.921L245.658,191.134L246.084,189.674L246.906,186.358L246.693,184.289L247.119,183.041L246.693,183.041L247.727,182.22L247.119,181.398L247.941,181.581L249.615,177.655L251.045,177.23L250.436,175.982L251.045,175.8L251.045,176.622L251.471,176.409L251.045,175.162L250.645,175.374L250.858,174.949L250,174.76L251.461,174.12L251.887,172.66L251.461,172.051L252.1,171.839L252.1,170.378L253.744,168.735L253.135,168.522L254.169,168.309L252.922,167.909L254.352,167.696L254.564,166.662L253.955,167.062L253.53,166.662L254.169,166.875L253.956,166.235L254.565,166.661L254.778,164.987L254.778,164.774L254.353,165.2L254.353,164.6L254.17,164.782L253.957,164.173L254.566,164.599L254.779,163.564L254.779,164.386L255.601,163.96L255.814,162.925L255.414,162.525L256.236,162.525L256.845,160.851L256.236,161.673L256.023,160.851L256.632,160.851L256.632,160.03L256.845,160.851L257.697,159.391L257.484,158.991L257.884,158.991L257.884,159.6L260.378,158.14L259.556,157.958L258.735,158.567L258.522,158.354L258.922,157.954L258.74,157.528L259.561,157.954L260.17,157.528L260.383,157.954L261.205,156.706L262.665,155.854L262.878,154.211L262.238,153.998L262.238,154.424L261.417,153.998L262.451,153.998L262.664,152.538L264.125,151.321L265.981,145.296L265.768,141.158L267.229,137.416L267.442,136.776L268.051,133.276L267.442,132.85L268.051,133.063L267.869,132.241L269.512,129.107L269.086,129.107L269.512,128.925L269.725,127.251L269.086,126.429L269.268,124.573L268.325,124.603L267.443,124.512L266.926,124.912L266.439,125.125L265.891,125.185L264.979,124.911L263.979,125.368L263.187,124.576L262.267,124.312ZM237.591,179.08C238.05,179.056 238.509,179.139 238.93,179.323C239.218,179.413 239.408,179.691 239.387,179.992C239.31,180.304 239.165,180.595 238.961,180.844C238.546,181.477 237.986,182.179 238.017,182.792C237.943,183.128 237.592,183.855 237.105,183.948C236.862,183.994 236.57,183.882 236.283,183.491C235.866,182.839 235.568,182.118 235.401,181.362C235.227,180.782 235.406,180.151 235.858,179.749C236.34,179.331 236.954,179.094 237.592,179.08" style="fill:rgb(245,242,212);fill-opacity:0.18;fill-rule:nonzero;stroke:rgb(245,242,212);stroke-width:0.5px;"/>
        </g>
        <g id="Path_877" transform="matrix(1,0,0,1,-3.002,-0.084)">
            <path d="M118.083,7.13L120.156,8.374L122.23,7.13L122.852,6.094L123.475,6.3L123.475,5.47L124.096,5.264L123.267,4.02L122.436,4.02L122.23,3.398L121.608,4.228L122.023,5.265L121.4,3.813L121.193,4.435L120.778,4.229L120.778,5.472L120.571,4.435L120.364,4.435L119.742,4.229L118.498,4.644L119.328,5.888L118.498,5.473L118.291,4.436L117.876,4.851L118.083,5.058L117.876,5.058L117.876,4.022L116.424,3.192L116.935,5.915L116.217,6.095L116.631,5.68L116.217,5.887L116.631,5.057L116.217,4.227L114.765,5.264L115.595,5.679L115.18,5.679L115.18,6.509L115.386,6.647L115.386,7.131L115.18,6.509L114.973,6.924L114.351,6.509L114.351,7.339L113.936,7.339L117.875,7.754L118.083,7.13Z" style="fill:rgb(245,242,212);fill-opacity:0.18;fill-rule:nonzero;stroke:rgb(245,242,212);stroke-width:0.5px;"/>
        </g>
        <g id="Path_878" transform="matrix(1,0,0,1,-2.815,-0.078)">
            <path d="M106.861,27.857L106.861,109.187L164.855,109.187L164.855,37.959L164.125,36.985L162.056,36.346L159.347,34.489L158.738,34.702L158.951,35.128L157.917,34.702L157.277,34.915L157.277,34.063L155,33.029L154.178,31.386L150.862,29.317L150.649,29.53L150.649,29.1L150.04,29.313L149,28.283L148.574,26.823L149.821,26.397L150.856,23.933L152.103,23.294L152.316,22.046L153.35,19.764L152.498,20.404L152.098,20.191L151.885,18.335L152.311,18.517L152.711,18.117L152.102,17.904L152.315,17.295L152.924,16.87L153.136,17.479L153.745,16.262L153.958,17.296L154.171,16.262L154.78,16.444L154.993,15.835L155.418,16.87L154.993,17.479L155.814,17.079L156.454,15.832L155.814,15.193L157.062,15.406L155.814,13.976L156.24,14.158L156.453,13.758L156.879,14.367L156.666,13.545L157.275,13.545L157.701,12.511L157.488,11.872L157.914,11.872L157.914,12.511L159.161,11.051L157.914,9.804L157.274,10.229L157.7,10.629L157.061,10.629L156.239,8.772L155.813,8.772L156.453,7.951L153.953,9.807L155.413,10.232L154.774,11.48L154.165,11.88L153.343,11.697L152.918,12.097L152.918,11.488L152.5,11.488L153.139,10.453L152.5,10.636L152.318,10.236L153.139,9.202L151.466,10.024L151.253,10.663L150.644,10.237L152.318,8.381L150.037,9.6L149.824,9.2L148.79,9.413L147.755,10.022L148.577,10.447L147.33,10.234L147.755,10.843L145.26,9.815L144.62,8.385L143.8,9.419L141.3,8.779L140.691,10.027L141.117,8.992L140.691,8.17L140.266,8.383L140.053,7.744L139.231,8.383L138.622,7.744L139.231,7.135L138.409,6.922L136.553,7.957L136.735,7.135L136.335,7.535L135.91,6.926L135.301,7.326L135.483,6.717L134.266,6.93L132.806,4.436L132.38,4.436L132.592,5.075L132.167,4.862L131.132,5.684L129.703,3.615L129.277,4.224L129.064,2.977L128.455,3.402L128.668,4.011L127.603,2.977L127.816,4.224L128.242,4.437L127.816,5.076L127.416,3.616L126.564,2.977L126.564,3.829L125.529,3.616L125.742,4.016L125.342,4.442L126.376,4.229L126.559,4.654L126.376,4.867L127.198,5.08L127.411,5.689L128.233,5.263L130.089,5.081L130.089,5.481L130.514,5.481L130.089,5.694L130.728,5.907L130.302,5.907L130.728,6.119L130.302,6.302L131.549,6.302L130.514,7.336L131.336,7.976L130.936,8.188L130.723,9.436L131.758,9.836L130.328,9.436L129.689,9.836L129.476,11.083L129.076,10.049L128.436,10.474L128.224,9.835L127.189,10.869L126.155,10.26L123.264,10.66L122.442,10.051L122.23,9.016L121.804,10.263L120.161,9.838L120.561,11.298L119.526,11.085L119.126,11.511L120.161,12.332L119.309,12.12L119.709,12.759L119.309,13.159L118.909,12.337L118.909,12.55L118.484,12.763L118.697,11.698L117.449,11.516L117.662,12.945L117.237,12.945L118.484,13.584L117.875,13.584L117.875,13.984L116.84,12.949L116.201,13.162L116.414,13.587L115.988,13.162L115.988,14.622L114.558,15.022L114.558,16.482L115.776,17.942L115.376,17.729L113.702,18.977L113.093,18.764L113.093,18.364L112.454,18.764L112.272,20.62L112.672,20.438L111.85,21.047L112.063,22.081L111.424,22.507L111.024,22.081L111.424,23.116L111.024,22.716L110.599,23.537L110.386,22.898L109.565,24.358L109.565,24.997L110.174,25.606L110.599,25.181L110.599,25.82L111.421,25.607L111.633,26.033L112.455,25.607L112.273,26.033L111.238,26.642L111.847,26.642L111.847,27.067L111.634,27.067L111.787,27.342L111.939,27.402L112.456,27.067L112.274,27.676L113.703,26.855L113.703,27.464L112.882,27.464L113.308,27.889L112.669,27.676L111.422,27.676L111.847,28.498L111.422,28.098L111.634,29.558L111.025,29.74L110.386,28.31L109.777,28.098L109.99,29.132L109.138,27.885L109.351,28.31L108.742,28.31L109.142,28.919L108.742,29.345L109.351,29.558L108.742,29.558L108.529,30.38L108.529,29.74L108.103,30.592L108.529,29.558L108.316,29.345L107.891,28.919L107.891,28.098L107.491,28.707L107.491,27.885L106.861,27.857Z" style="fill:rgb(245,242,212);fill-opacity:0.18;fill-rule:nonzero;stroke:rgb(245,242,212);stroke-width:0.5px;"/>
        </g>
        <g id="Path_879" transform="matrix(1,0,0,1,-4.118,-0.533)">
            <path d="M156.937,23.754L158.388,24.584L160.254,24.584L160.047,23.547L159.839,23.962L158.804,23.755L158.804,22.926L159.425,22.718L159.218,22.097L160.255,21.267L159.632,20.851L159.632,21.473L158.8,21.473L158.592,20.643L158.8,20.229L157.761,20.435L158.177,21.058L156.726,21.472L156.726,22.509L156.933,23.339L156.31,24.169L156.937,23.754Z" style="fill:rgb(245,242,212);fill-opacity:0.18;fill-rule:nonzero;stroke:rgb(245,242,212);stroke-width:0.5px;"/>
        </g>
        <g id="Path_880" transform="matrix(1,0,0,1,-4.385,0)">
            <path d="M197,0L196.178,0.213L195.539,1.46L194.322,1.86L194.504,2.895L193.9,5.6L193.688,5.6L193.475,7.06L194.114,7.06L193.292,7.242L193.08,8.49L193.48,9.129L193.9,8.7L193.475,9.339L193.075,9.126L192.862,9.948L192.649,8.488L191.615,10.162L192.224,10.374L191.615,10.374L190.793,12.443L191.402,12.443L191.189,11.622L191.829,11.804L191.403,12.017L192.225,12.656L193.289,12.656L192.225,13.056L193.289,13.482L192.864,13.695L193.077,14.729L192.225,13.269L191.825,14.304L190.79,15.125L191.399,17.012L191.186,17.621L191.612,17.408L191.399,17.621L191.825,17.833L191.003,17.833L189.938,20.933L191.003,23.215L190.364,25.284L191.185,29.026L189.938,32.343L189.329,34.837L189.755,35.872L188.3,40.011L186.627,42.08L186.227,44.788L184.341,46.248L180.841,47.07L180.415,46.857L179.168,46.035L177.707,45.823L176.885,44.788L175.425,44.149L175.025,42.293L174.203,41.471L171.495,40.649L168.178,40.224L166.414,37.88L166.414,109.11L186.614,109.11L186.614,125.6L197.159,125.612L238.339,125.66L239.191,125.204L239.13,124.686L239.83,124.626L239.921,123.526L240.986,123.618L241.746,122.461L242.293,122.431L243.571,122.831L244.818,123.044L246.218,122.557L247.1,122.465L247.313,122.983L248.013,122.922L248.743,123.196L249.321,123.496L250.903,123.526L252.003,123.769L252.642,124.591L253.042,125.078L253.467,125.747L253.528,126.447L253.984,127.481L254.654,127.056L254.954,126.508L255.593,125.717L256.233,124.957L256.633,125.626L257.393,125.9L258.393,125.444L258.515,124.896L259.155,124.136L258.455,124.197L258.181,123.162L258.272,122.432L259.155,122.34L260.219,122.249L260.859,121.64L261.711,121.031L262.623,121.305L263.415,122.096L264.415,121.64L265.327,121.914L265.875,121.853L266.362,121.641L266.879,121.241L267.761,121.333L268.704,121.303L268.734,120.877L267.913,120.056L267.335,117.556L266.878,115.7L266.269,114.848L265.63,115.273L266.055,114.634L265.203,114.234L265.843,113.595L265.203,112.986L266.055,112.56L265.416,111.951L265.416,111.312L266.451,112.559L265.842,110.703L265.629,111.312L266.054,109.668L265.629,109.394L265.842,107.594L265.416,107.594L266.268,104.278L265.843,104.278L265.417,103.426L265.017,104.673L265.199,103.639L264.59,103.639L265.016,103.239L264.164,102.599L264.164,101.352L264.803,100.743L263.556,101.143L264.59,100.743L264.378,99.709L262.096,99.069L262.735,98.669L261.488,97.209L261.701,96.387L261.08,96L260.868,96.425L261.08,95.786L259.833,95.177L259.833,95.39L258.8,94.352L257.765,91.644L256.943,91.431L257.156,90.61L256.731,91.219L256.731,90.61L256.122,90.397L256.522,91.219L255.7,90.819L255.7,91.219L254.878,90.819L254.878,91.219L252.17,87.506L251.561,88.328L250.709,87.081L251.135,86.868L250.526,85.621L250.926,85.221L250.317,82.94L250.717,82.94L250.93,81.266L250.53,80.231L250.53,80.871L250.104,80.658L249.679,79.836L250.318,80.049L250.531,79.836L249.892,78.802L249.892,79.623L249.679,78.802L249.279,78.589L249.066,79.198L249.675,80.232L249.275,80.05L249.675,81.084L246.784,78.984L245.75,77.341L245.537,77.766L244.928,78.801L245.537,80.23L245.962,81.082L245.537,80.657L244.29,79.197L243.042,80.657L243.682,79.197L242.83,79.197L243.255,78.984L243.042,78.584L242.221,78.797L243.042,78.371L241.795,75.48L242.221,73.199L242.008,73.599L241.186,72.777L240.973,73.203L240.973,71.32L240.152,71.746L240.364,71.106L240.152,71.106L240.552,70.072L239.73,69.25L239.121,69.676L239.304,68.854L237.874,68.854L237.661,68.215L238.087,68.002L237.052,67.393L237.235,66.967L236.626,66.358L237.235,66.146L236.835,65.72L237.444,65.933L237.657,65.507L238.692,66.359L237.444,64.29L237.044,64.473L237.044,63.864L236.405,63.864L236.192,63.042L235.37,63.042L235.37,63.864L234.761,63.651L233.909,62.829L234.122,62.617L234.122,62.4L233.088,61.791L231.84,62.004L231.44,60.544L230.801,60.544L231.227,61.578L230.375,61.365L229.158,60.118L229.98,60.544L228.733,57.835L228.733,58.687L226.876,58.87L226.024,57.014L225.842,57.835L225.203,57.835L224.594,57.014L222.494,56.192L221.277,54.732L221.677,52.45L220.855,52.45L219.395,49.956L220.429,46.427L220.029,46.427L220.029,44.788L218.782,42.506L219.182,41.472L218.148,41.685L215.683,38.368L215.683,37.333L216.083,37.333L216.083,35.873L215.261,34.838L215.048,32.557L214.226,31.735L215.261,30.487L215.261,30.275L214.622,30.487L214.439,29.453L215.261,28.418L214.834,28.418L214.434,27.566L213.187,27.384L212.335,26.137L210.905,25.711L209.873,23L208.626,24.034L207.804,23.634L207.378,24.881L206.131,25.49L205.097,24.669L204.488,21.96L203.424,20.317L203.849,18.248L203.24,16.179L203.423,14.293L202.206,14.718L202.815,12.832L201.567,12.01L201.567,11.2L200.533,10.987L200.32,9.527L201.567,8.493L200.533,8.093L199.711,8.305L199.072,7.666L199.072,4.566L198.25,2.071L197.641,2.071L197.216,1.249L197.216,1.649L196.394,2.075L197.428,0.395L197.216,0.213L197,0Z" style="fill:rgb(245,242,212);fill-opacity:0.18;fill-rule:nonzero;stroke:rgb(245,242,212);stroke-width:0.5px;"/>
        </g>
        <g id="Path_881" transform="matrix(1,0,0,1,-7.042,-2.581)">
            <path d="M268.513,98.79L269.341,100.034L267.682,101.9L268.098,101.9L267.682,103.351L267.269,104.388L268.098,105.84L269.964,100.24L269.548,99.41L269.548,97.96L268.513,98.79Z" style="fill:rgb(245,242,212);fill-opacity:0.18;fill-rule:nonzero;stroke:rgb(245,242,212);stroke-width:0.5px;"/>
        </g>
        <g id="Path_882" transform="matrix(1,0,0,1,-4.612,-1.027)">
            <path d="M176.508,40.628L177.128,40.835L177.751,39.591L177.958,40.213L178.786,40.006L177.751,38.97L176.092,39.591L175.056,40.628L176.092,41.25L176.508,40.628Z" style="fill:rgb(245,242,212);fill-opacity:0.18;fill-rule:nonzero;stroke:rgb(245,242,212);stroke-width:0.5px;"/>
        </g>
        <g id="Path_883" transform="matrix(1,0,0,1,0,-0.55)">
            <path d="M104.046,147.6L104.046,28.329L102.829,28.329L102.429,27.903L101.607,27.721L100.36,27.903L101.182,28.542L101.394,29.364L100.573,28.33L101.182,29.364L100.969,29.151L100.756,29.577L100.356,29.151L100.143,30.003L99.718,28.939L99.318,29.578L100.353,32.469L99.927,32.469L99.715,31.434L98.69,30.4L98.69,32.073L98.081,32.682L98.481,31.861L98.081,31.221L98.481,31.039L98.269,29.792L98.908,28.332L98.482,28.332L99.334,28.119L98.909,27.51L99.334,27.297L97.874,26.263L97.662,26.688L95.8,23.765L94.34,22.943L94.128,22.122L93.519,21.909L93.731,22.518L93.092,21.909L92.667,22.309L92.667,21.909L92.267,22.309L91.842,21.275L90.595,20.875L90.595,21.275L89.773,21.092L90.198,22.127L91.02,22.527L90.655,22.497L89.555,22.314L89.768,22.953L89.342,23.379L89.16,22.953L88.947,24.201L88.308,22.953L87.908,23.166L88.308,22.132L87.061,22.953L86.878,23.379L87.278,23.779L86.457,24.205L86.244,23.17L85.844,23.17L86.244,22.745L85.844,22.745L86.244,22.319L85.635,22.745L85,22.518L85,22.943L84.817,22.518L84.817,22.943L86.034,23.552L85.212,24.192L85.425,24.801L84.816,25.226L85.216,26.048L84.39,26.048L84.39,27.082L83.75,26.473L83.963,25.652L83.141,25.834L83.141,25.225L82.532,26.869L82.715,25.012L83.14,24.403L82.319,23.978L82.319,26.26L81.679,26.047L81.279,26.869L81.066,26.26L80.641,26.685L80.854,25.833L80.032,26.685L80.432,26.868L79.185,27.507L79.824,28.329L80.433,28.329L79.611,28.968L80.859,29.368L81.071,28.968L81.471,29.15L80.648,30L81.682,30.4L80.648,30.4L80.248,29.791L79.4,30.4L78.791,28.97L78.365,29.152L78.578,30.004L77.331,30.187L77.756,30.4L77.543,31.039L78.791,30.187L77.544,31.25L77.97,31.65L79,31.037L79,31.437L79.4,31.437L78.791,32.076L80.038,33.111L79,32.284L78.575,32.684L78.149,31.863L77.328,31.65L77.328,31.224L76.719,31.65L76.293,32.472L76.08,32.072L75.868,32.681L75.046,32.469L75.259,32.681L74.437,33.321L74.837,33.503L74.228,33.716L75.049,36L75.262,35.635L75.262,35.787L75.687,35.178L75.322,35.513L75.87,34.539L76.509,34.139L76.083,34.539L76.723,34.539L75.871,35.178L75.688,36.638L76.088,36.638L75.267,37.038L75.692,37.251L75.267,37.464L74.841,36.429L74.441,38.285L75.871,38.073L76.692,38.498L74.836,38.711L74.436,38.285L74.01,38.711L74.375,38.924L73.401,39.106L74.01,38.924L73.401,38.711L72.762,37.889L71.332,37.25L71.941,37.889L71.52,37.889L71.945,38.498L71.124,37.889L71.124,38.072L70.089,37.672L70.489,37.672L70.277,37.247L70.7,37.247L69.878,36.821L69.878,37.247L69.239,37.034L69.452,37.46L69.052,37.034L69.452,37.673L69.052,37.886L69.873,38.069L70.086,38.494L69.447,38.281L70.086,38.707L68.626,38.707L69.661,39.316L68.231,39.316L68.631,39.955L68.844,39.53L69.453,39.742L68.631,40.351L70.091,40.777L70.491,42.024L71.343,41.599L71.343,41.199L71.743,41.382L70.7,42.416L71.126,42.842L70.486,42.629L71.551,44.516L69.665,42.629L69.056,42.842L69.877,44.302L69.452,44.089L69.052,45.124L69.052,46.158L67.804,44.911L67.165,42.842L66.343,42.233L66.343,40.56L65.734,40.56L65.095,39.951L65.308,39.099L65.947,38.917L65.522,38.277L64.882,38.49L63.669,40.56L64.278,41.199L62.6,40.987L62.417,41.596L62.817,42.417L61.996,42.017L61.996,42.417L61.174,42.63L60.535,43.482L60.96,43.665L59.926,44.517L59.713,46.373L60.322,47.833L59.922,49.263L61.382,49.475L61.382,50.3L58.461,52.4L57.639,52.583L57,53.435L57.425,54.044L56.391,54.257L56.603,55.078L55.569,56.965L53.069,60.065L47.258,62.565L45.798,62.747L44.368,62.747L43.729,63.173L42.907,63.782L42.298,63.173L40.411,62.747L40.624,63.173L40.624,63.386L40.411,63.173L40.011,62.96L39.798,63.173L38.338,65.029L34,65.875L34,65.45L32.36,66.484L32.543,66.91L31.934,66.91L31.508,67.731L30.473,67.944L30.473,67.731L28.83,68.553L27.583,67.944L27.37,67.305L25.91,68.157L25.301,67.944L24.875,67.731L25.515,66.697L25.089,66.697L24.055,67.944L24.268,68.157L23.842,68.157L21.773,69.191L21.134,68.766L20.95,69.8L19.277,70.622L18.668,71.869L17.633,72.082L16.6,73.756L12.644,74.79L11,75.825L10.787,77.072L10.361,77.255L9.936,77.072L10.149,77.894L9.54,78.928L9.94,79.354L9.54,79.141L9.752,79.541L8.9,80.572L8.5,79.963L7.466,80.572L7.866,79.142L7.466,79.542L7.253,78.113L8.075,75.613L6.615,76.039L4.551,81L5.585,83.709L5.185,84.956L5.4,87.417L3.3,90.338L2.9,94.051L4.544,96.759L4.331,97.184L4.756,98.828L5.578,99.467L7.86,104.031L8.499,104.213L8.712,105.248L8.08,105.248L8.292,107.529L7.258,108.777L6.223,107.133L6.011,104.851L6.011,105.886L4.976,106.708L5.189,104.426L3.515,101.748L2.906,103.391L3.306,103.817L3.306,102.965L3.946,106.099L6.015,107.742L5.8,109.629L4.553,110.238L4.34,108.778L4.157,110.025L3.732,107.525L3.519,108.773L2.697,105.456L2.91,108.165L2.271,107.739L2.271,105.46L2.088,107.134L1.236,106.495L6.622,114.376L7.869,117.692L7.469,118.726L7.869,120.826L10.151,123.504L10.79,124.751L10.577,125.573L12.433,128.067L13.285,130.988L13.07,134.7L13.07,135.125L13.679,138.441L17.817,147.141L18.029,150.241L19.064,149.632L19.064,150.032L18.029,150.244L18.242,151.279L17.817,151.918L18.029,153.378L17.208,155.022L17.817,159.799L15.565,162.477L14.5,162.477L13.283,161.655L13.283,166.006L14.105,168.288L14.318,167.888L15.535,167.676L17.817,168.923L19.703,171.814L22.203,172.635L22.385,172.026L23.237,172.635L22.2,172.635L23.843,173.67L24.482,173.061L25.699,173.67L28.62,173.27L30.264,174.304L30.689,173.452L32.546,174.091L32.971,173.879L31.937,173.453L32.362,172.631L32.762,172.419L32.55,173.271L34.223,173.271L34.011,172.631L35.471,172.419L35.683,171.171L37.54,170.35L37.752,169.528L38.787,169.102L38.361,168.702L41.07,169.524L41.282,168.702L42.104,168.915L42.104,168.063L43.139,168.276L42.317,167.454L45.208,164.746L45.817,164.746L48.525,165.172L49.559,164.35L54.759,163.711L57.437,164.533L58.897,163.924L59.719,165.384L60.753,165.384L61.179,164.532L62.609,164.957L62.821,164.348L65.53,164.136L66.139,164.536L66.351,165.388L67.811,164.353L68.846,164.753L71.737,161.862L72.589,158.546L73.41,157.694L77.153,156.477L84.6,152.1L86.244,151.7L89.378,152.1L92.878,151.917L99.542,149.848L104.046,147.6ZM78.152,38.491L77.118,38.917L76.753,38.517L77.118,38.7L78.152,38.491ZM1.659,105.467L0,101.735L0,103.809L1.659,106.509L1.659,105.467Z" style="fill:rgb(245,242,212);fill-opacity:0.18;fill-rule:nonzero;stroke:rgb(245,242,212);stroke-width:0.5px;"/>
        </g>
        <g id="Path_884" transform="matrix(1,0,0,1,-4.931,-4.587)">
            <path d="M244.619,197.826L244.01,197.217L244.193,197.217L243.493,196.578L241.819,196.456L233.847,192.5L234,191.192L233.665,190.127L232.965,189.127L232.418,187.941L232.6,186.815L231.231,186.085L230.349,186.42L229.649,186.694L228.919,186.816L227.885,187.151L226.455,187.551L224.568,187.095L223.534,186.517L222.682,186.817L222.043,187.487L220.886,187.274L219.699,186.727L218.817,186.849L217.417,186.149L215.617,186.423L214.795,185.997L214.095,186.088L213.608,186.728L213.851,188.157L212.574,188.34L210.992,187.67L209.744,186.758L209.379,185.511L207.463,183.776L205.881,183.107L204.781,183.077L203.381,181.068L202.772,178.39L201.798,177.99L200.124,177.868L199.182,177.655L198.147,178.173L198.117,179.116L197.052,178.173L196.565,176.195L194.891,174.795L192.822,174.552L191.122,174.278L190.122,174.978L188.322,174.126L187.222,174.309L187.162,174.096L187.162,201.754L187.587,201.784L189.869,203.641L189.869,204.675L190.508,204.462L191.117,204.888L192.365,203.428L194.859,204.675L196.503,204.25L204.171,208.418L207.304,205.318L209.769,203.645L211.23,203.645L211.655,202.397L210.195,202.823L209.373,202.184L210.408,202.184L213.085,200.115L214.332,202.609L213.085,204.253L211.229,203.853L213.085,205.497L214.332,204.675L214.972,204.888L215.154,203.214L216.615,203.214L217.041,204.461L216.219,204.674L216.006,205.922L217.436,206.956L218.896,206.743L219.109,207.169L218.501,206.956L219.535,208.812L220.357,208.203L221.179,208.629L220.966,207.99L221.818,209.663L222.852,210.698L223.252,207.99L222.004,208.811L221.604,207.168L223.673,207.168L226.137,206.346L230.093,202.178L232.801,200.534L229.485,201.964L231.341,200.747L231.28,200.655L230.733,200.108L232.163,200.533L233.836,199.894L233.624,200.32L242.752,199.498L244.619,197.826Z" style="fill:rgb(245,242,212);fill-opacity:0.18;fill-rule:nonzero;stroke:rgb(245,242,212);stroke-width:0.5px;"/>
        </g>
        <g id="Path_885" transform="matrix(1,0,0,1,-2.815,-2.952)">
            <path d="M185.058,200.117L185.058,112.062L106.858,112.062L106.858,150L107.315,149.757L113.735,149.118L114.769,148.905L118.938,149.331L121.219,148.083L125.145,150.152L128.066,152.434L129.922,152.434L129.709,152.034L130.136,151.821L131.565,151.821L134.065,153.89L136.56,153.89L135.921,153.281L136.347,153.068L136.772,153.468L137.172,152.859L139.454,155.14L138.845,155.353L138.845,156.388L140.092,155.748L140.914,155.961L141.736,157.635L141.127,158.457L141.34,157.817L140.3,157.817L140.7,158.669L140.3,159.278L141.122,159.491L140.696,160.1L141.944,161.347L141.544,160.1L142.153,161.347L142.762,160.947L144.01,161.769L143.401,161.16L144.435,161.342L144.009,161.768L145.256,163.442L145.256,164.659L147.538,166.759L148.785,172.359L148.998,171.72L149.21,172.359L149.61,172.542L148.788,172.754L148.362,171.933L148.575,171.72L147.753,171.507L147.753,171.107L147.114,172.354L147.966,171.928L150.466,175.028L151.5,174.419L152.535,175.666L152.935,173.385L151.505,173.994L152.114,173.568L152.327,171.925L153.149,171.499L153.574,171.925L153.574,170.465L156.674,166.934L159.168,165.687L158.529,165.9L158.955,165.078L159.38,165.504L160.81,165.078L162.27,160.94L163.517,159.48L164.339,159.906L164.339,155.737L165.373,158.019L165.586,159.906L166.195,160.515L164.552,161.975L165.799,164.256L163.299,166.756L162.691,168.612L162.266,168.825L162.691,170.072L162.052,171.289L162.478,171.107L162.69,172.324L162.265,174.818L161.839,175.244L159.375,174.605L158.31,177.738L160.41,177.526L162.053,176.278L163.513,176.887L164.335,176.487L163.909,176.061L164.944,173.779L165.157,171.71L166.404,168.819L169.325,173.839L169.507,174.204L169.107,174.417L168.894,173.778L168.682,178.341L166.4,180.41L169.321,180.623L170.538,179.589L171.602,179.801L174.702,182.266L171.602,180.014L174.28,182.083L176.045,184.365L174.706,182.296L175.74,183.118L176.988,185.826L176.44,184.974L178.022,189.142L177.81,190.176L176.775,191.211L177.597,192.458L177.197,193.067L178.841,195.349L181.241,198.575L181.332,198.875L182.58,199.91L185.058,200.117Z" style="fill:rgb(245,242,212);fill-opacity:0.18;fill-rule:nonzero;stroke:rgb(245,242,212);stroke-width:0.5px;"/>
        </g>
        <g id="Path_886" transform="matrix(1,0,0,1,-4.152,-4.792)">
            <path d="M165.679,184.149L165.886,183.111L164.433,183.111L164.849,181.868L158.006,183.319L157.591,184.356L158.836,185.808L160.702,185.601L162.153,185.186L163.811,186.016L164.641,185.394L164.848,184.564L167.548,184.564L167.962,183.735L166.51,183.113L165.679,184.149Z" style="fill:rgb(245,242,212);fill-opacity:0.18;fill-rule:nonzero;stroke:rgb(245,242,212);stroke-width:0.5px;"/>
        </g>
        <g id="Path_887" transform="matrix(1,0,0,1,-5.443,-5.678)">
            <path d="M207.2,215.516L206.579,216.76L206.786,219.248L206.786,220.078L207.2,220.493L208.445,219.249L208.238,216.349L207.2,215.516Z" style="fill:rgb(245,242,212);fill-opacity:0.18;fill-rule:nonzero;stroke:rgb(245,242,212);stroke-width:0.5px;"/>
        </g>
        <g id="Path_888" transform="matrix(1,0,0,1,-6.127,-5.712)">
            <path d="M233.386,218.452L233.386,219.282L234.215,220.112L234.837,221.564L236.495,220.941L236.081,219.905L235.665,220.32L236.081,219.283L236.287,218.868L235.457,218.868L233.798,216.795L232.555,218.247L233.386,218.452Z" style="fill:rgb(245,242,212);fill-opacity:0.18;fill-rule:nonzero;stroke:rgb(245,242,212);stroke-width:0.5px;"/>
        </g>
        <g id="Path_889" transform="matrix(1,0,0,1,-5.577,-5.931)">
            <path d="M231.59,244.8L231.176,246.044L232.005,246.25L231.59,246.666L232.212,247.495L232.835,247.288L232.835,246.458L233.664,247.495L233.248,245.628L232.212,245.835L231.59,244.8ZM235.737,233.187L235.323,231.944L235.944,230.285L235.323,229.664L235.944,228.004L234.286,225.931L233.248,225.724L232.835,226.968L231.59,226.346L230.139,228L229.103,227.378L228.066,228.209L227.236,227.794L225.785,228.415L226.821,229.453L226.613,229.867L225.37,228.415L224.335,229.245L224.535,230.076L224.122,229.038L222.257,229.454L217.487,226.554L216.243,226.554L215.827,225.518L215.827,226.348L214.999,226.141L214.999,226.555L212.099,225.104L212.307,226.762L211.685,228L212.514,231.526L213.967,233.6L213.551,234.014L215.626,236.714L215.626,238.579L216.247,237.957L217.284,239.824L217.698,239.824L217.284,241.276L217.077,240.033L215.211,238.373L215.832,242.106L216.455,242.313L217.492,245.423L218.529,245.838L219.565,248.119L220.188,248.119L219.772,247.912L220.188,247.082L220.603,248.327L222.262,248.327L222.054,248.742L220.603,248.327L220.603,248.948L220.188,248.742L220.809,250.401L222.262,249.778L224.54,250.194L224.34,249.572L225.168,251.023L226.411,251.023L227.242,249.779L226.619,249.157L227.45,249.365L227.657,248.535L227.034,248.328L227.865,247.913L227.034,246.877L227.241,246.461L227.241,247.082L227.657,247.498L227.864,246.877L227.864,247.498L228.692,247.913L228.9,245.632L229.523,245.839L229.523,244.596L228.484,242.937L229.936,244.803L230.351,244.596L229.936,245.839L230.767,245.217L230.559,244.181L231.182,243.974L230.144,243.352L231.182,243.558L231.596,244.596L232.426,244.389L233.463,242.523L232.842,241.486L233.671,241.071L233.877,239.413L233.255,239.619L234.293,237.546L234.914,237.546L234.293,237.339L235.122,236.095L234.708,237.339L235.744,237.753L235.744,238.998L236.16,238.375L235.538,236.924L235.737,233.187Z" style="fill:rgb(245,242,212);fill-opacity:0.18;fill-rule:nonzero;stroke:rgb(245,242,212);stroke-width:0.5px;"/>
        </g>
        <g id="Path_890" transform="matrix(1,0,0,1,-6.172,-5.847)">
            <path d="M234.259,222.941L236.332,222.941L236.539,223.564L237.369,222.941L236.539,221.904L234.259,222.941Z" style="fill:rgb(245,242,212);fill-opacity:0.18;fill-rule:nonzero;stroke:rgb(245,242,212);stroke-width:0.5px;"/>
        </g>
        <g id="Path_891" transform="matrix(1,0,0,1,-6.235,-4.757)">
            <path d="M238.9,180.556C239.354,180.534 239.808,180.619 240.223,180.804C240.509,180.891 240.699,181.167 240.678,181.465C240.607,181.782 240.466,182.079 240.264,182.333C239.849,182.965 239.282,183.663 239.314,184.276C239.239,184.612 238.891,185.341 238.404,185.434C238.161,185.48 237.865,185.369 237.577,184.979C237.167,184.317 236.874,183.59 236.709,182.829C236.535,182.25 236.713,181.619 237.164,181.216C237.648,180.8 238.263,180.566 238.901,180.555" style="fill:rgb(245,242,212);fill-opacity:0.18;fill-rule:nonzero;stroke:rgb(245,242,212);stroke-width:0.5px;"/>
        </g>
    </g>
    <g id="Layer1">
        <g transform="matrix(0.170213,0,0,0.170213,17.8585,144.454)">
            <g transform="matrix(1,0,0,1,-23.5,-23.5)">
                <g id="Group_227">
                    <g id="Subtraction_2-17">
                        <path d="M23.438,45.313C11.376,45.312 1.562,35.499 1.562,23.437C1.563,11.376 11.376,1.562 23.438,1.562C35.499,1.562 45.313,11.376 45.313,23.438C45.312,35.499 35.499,45.312 23.437,45.312L23.438,45.313Z" style="fill:rgb(232,71,82);fill-rule:nonzero;"/>
                        <path d="M23.438,3.125C12.237,3.125 3.125,12.237 3.125,23.438C3.125,34.638 12.237,43.75 23.438,43.75C34.638,43.75 43.75,34.638 43.75,23.437C43.75,12.237 34.638,3.125 23.437,3.125M23.437,0C36.382,0 46.875,10.493 46.875,23.438C46.875,36.382 36.382,46.875 23.437,46.875C10.493,46.875 0,36.382 0,23.437C0,10.493 10.493,0 23.438,0L23.437,0Z" style="fill:rgb(255,254,240);fill-rule:nonzero;"/>
                    </g>
                </g>
            </g>
        </g>
        <g transform="matrix(0.170213,0,0,0.170213,47.9511,162.835)">
            <g transform="matrix(1,0,0,1,-23.5,-23.5)">
                <g id="Group_2271" serif:id="Group_227">
                    <g id="Subtraction_2-171" serif:id="Subtraction_2-17">
                        <path d="M23.438,45.313C11.376,45.312 1.562,35.499 1.562,23.437C1.563,11.376 11.376,1.562 23.438,1.562C35.499,1.562 45.313,11.376 45.313,23.438C45.312,35.499 35.499,45.312 23.437,45.312L23.438,45.313Z" style="fill:rgb(232,71,82);fill-rule:nonzero;"/>
                        <path d="M23.438,3.125C12.237,3.125 3.125,12.237 3.125,23.438C3.125,34.638 12.237,43.75 23.438,43.75C34.638,43.75 43.75,34.638 43.75,23.437C43.75,12.237 34.638,3.125 23.437,3.125M23.437,0C36.382,0 46.875,10.493 46.875,23.438C46.875,36.382 36.382,46.875 23.437,46.875C10.493,46.875 0,36.382 0,23.437C0,10.493 10.493,0 23.438,0L23.437,0Z" style="fill:rgb(255,254,240);fill-rule:nonzero;"/>
                    </g>
                </g>
            </g>
        </g>
    </g>
    <g transform="matrix(1,0,0,1,254.014,155.383)">
        <g id="Layer2">
            <g transform="matrix(1,0,0,1,-4,-4)">
                <g id="Group_275">
                    <path id="Subtraction_2-14" d="M4,0C6.194,-0 8,1.806 8,4C8,6.194 6.194,8 4,8C1.806,8 0,6.194 0,4C-0,1.806 1.806,0 4,0Z" style="fill:rgb(255,254,240);fill-rule:nonzero;"/>
                </g>
            </g>
        </g>
    </g>
</svg>
