<svg xmlns="http://www.w3.org/2000/svg" width="47.944" height="48.963" viewBox="0 0 47.944 48.963">
  <g id="Group_40" data-name="Group 40" transform="translate(0.268 1)">
    <path id="Path_215" data-name="Path 215" d="M362.051,53.836c2.241,1.995,5.422.331,7.515-1.25,2.021-2.561,2.925-5.545,1.852-7.247a1.849,1.849,0,0,0-1.223-.327,4.791,4.791,0,0,1-.928.258,3.434,3.434,0,0,1-2.82-.549c-.57-.375-1.832-2.757-3.675-4.111" transform="translate(-336.627 -18.427)" fill="none" stroke="#e84752" stroke-width="2"/>
    <path id="Path_216" data-name="Path 216" d="M361.774,58.337h0c-.433,1.32-.42,1.849-3.256,2.438-5.345,1.152-6.349,6.9-12.227,8.53" transform="translate(-333.18 -22.304)" fill="none" stroke="#e84752" stroke-width="2"/>
    <path id="Path_217" data-name="Path 217" d="M352.707,42.045a13.043,13.043,0,0,0,2.8,2.623,14.618,14.618,0,0,0,6.654-11.314,31.818,31.818,0,0,0-7.593,4.577s-1.946-.526-3.056-.684" transform="translate(-334.321 -16.839)" fill="none" stroke="#e84752" stroke-width="2"/>
    <path id="Path_218" data-name="Path 218" d="M349.184,35.337a11.467,11.467,0,0,0,2.282-4.5,30.551,30.551,0,0,0-8.594,5.054c-2.6-.477-11.445,1.5-13.363,2.034" transform="translate(-329.509 -16.289)" fill="none" stroke="#e84752" stroke-width="2"/>
    <path id="Path_219" data-name="Path 219" d="M380.381,31.478A22.775,22.775,0,0,1,354.81,61.56" transform="translate(-335.043 -16.429)" fill="none" stroke="#e84752" stroke-width="2"/>
    <path id="Path_220" data-name="Path 220" d="M331.468,30.9a22.778,22.778,0,0,1,29.105-17.677" transform="translate(-329.938 -12.216)" fill="none" stroke="#e84752" stroke-width="2"/>
    <ellipse id="Ellipse_2" data-name="Ellipse 2" cx="7.87" cy="7.87" rx="7.87" ry="7.87" transform="translate(30.224 0.265)" fill="none" stroke="#e84752" stroke-width="2"/>
    <path id="Path_221" data-name="Path 221" d="M348.867,29.984a5.876,5.876,0,0,0-10.623,3.482" transform="translate(-331.42 -15.575)" fill="none" stroke="#e84752" stroke-width="2"/>
    <path id="Path_222" data-name="Path 222" d="M352.273,22.274a4.036,4.036,0,0,0,1.091-1.379,3.8,3.8,0,0,0-.39-3.077" transform="translate(-334.488 -13.441)" fill="none" stroke="#e84752" stroke-width="2"/>
    <path id="Path_223" data-name="Path 223" d="M355.937,15.93a3.265,3.265,0,0,0,1.4,1.328,3.733,3.733,0,0,0,3.094-.748" transform="translate(-335.29 -13.028)" fill="none" stroke="#e84752" stroke-width="2"/>
    <path id="Path_224" data-name="Path 224" d="M362.826,19.849a2.877,2.877,0,0,0-1.03,1.589,3.637,3.637,0,0,0,.37,2.826" transform="translate(-336.54 -13.886)" fill="none" stroke="#e84752" stroke-width="2"/>
    <path id="Path_225" data-name="Path 225" d="M358.432,26.986a3.831,3.831,0,0,0-1.524-1.127,3.582,3.582,0,0,0-2.642.348" transform="translate(-334.924 -15.172)" fill="none" stroke="#e84752" stroke-width="2"/>
  </g>
</svg>
