<?xml version="1.0" encoding="UTF-8" standalone="no"?><!DOCTYPE svg PUBLIC "-//W3C//DTD SVG 1.1//EN" "http://www.w3.org/Graphics/SVG/1.1/DTD/svg11.dtd"><svg width="100%" height="100%" viewBox="0 0 47 47" version="1.1" xmlns="http://www.w3.org/2000/svg" xmlns:xlink="http://www.w3.org/1999/xlink" xml:space="preserve" xmlns:serif="http://www.serif.com/" style="fill-rule:evenodd;clip-rule:evenodd;stroke-linejoin:round;stroke-miterlimit:2;"><g id="Group_231"><g id="Subtraction_2-3"><path d="M23.438,45.313c-12.062,-0.001 -21.876,-9.814 -21.876,-21.876c0.001,-12.061 9.814,-21.875 21.876,-21.875c12.061,0 21.875,9.814 21.875,21.876c-0.001,12.061 -9.814,21.874 -21.876,21.874Z" style="fill:#24303b;fill-rule:nonzero;"/><path d="M23.438,3.125c-11.201,0 -20.313,9.112 -20.313,20.313c0,11.2 9.112,20.312 20.313,20.312c11.2,0 20.312,-9.112 20.312,-20.313c0,-11.2 -9.112,-20.312 -20.313,-20.312m0,-3.125c12.945,0 23.438,10.493 23.438,23.438c0,12.944 -10.493,23.437 -23.438,23.437c-12.944,0 -23.437,-10.493 -23.437,-23.438c0,-12.944 10.493,-23.437 23.438,-23.437Z" style="fill:#fffef0;fill-rule:nonzero;"/></g></g></svg>