<svg xmlns="http://www.w3.org/2000/svg" width="299" height="288" viewBox="0 0 299 288">
  <g id="Group_262" data-name="Group 262" transform="translate(-905 -3425)">
    <g id="Group_229" data-name="Group 229" transform="translate(871.735 3371.545)">
      <g id="Subtraction_2" data-name="Subtraction 2" transform="translate(33.265 53.455)" fill="#24303b">
        <path d="M 7.5 14.5 C 3.64018988609314 14.5 0.5 11.35980987548828 0.5 7.5 C 0.5 3.64018988609314 3.64018988609314 0.5 7.5 0.5 C 11.35980987548828 0.5 14.5 3.64018988609314 14.5 7.5 C 14.5 11.35980987548828 11.35980987548828 14.5 7.5 14.5 Z" stroke="none"/>
        <path d="M 7.5 1 C 3.915889739990234 1 1 3.915889739990234 1 7.5 C 1 11.08411026000977 3.915889739990234 14 7.5 14 C 11.08411026000977 14 14 11.08411026000977 14 7.5 C 14 3.915889739990234 11.08411026000977 1 7.5 1 M 7.5 0 C 11.64213943481445 0 15 3.35785961151123 15 7.5 C 15 11.64212989807129 11.64213943481445 15 7.5 15 C 3.35785961151123 15 0 11.64212989807129 0 7.5 C 0 3.35785961151123 3.35785961151123 0 7.5 0 Z" stroke="none" fill="#fffef0"/>
      </g>
    </g>
    <g id="Group_230" data-name="Group 230" transform="translate(1147.729 3570.366)">
      <g id="Subtraction_2-2" data-name="Subtraction 2" transform="translate(0.271 -0.366)" fill="#24303b">
        <path d="M 7.5 14.5 C 3.64018988609314 14.5 0.5 11.35980987548828 0.5 7.5 C 0.5 3.64018988609314 3.64018988609314 0.5 7.5 0.5 C 11.35980987548828 0.5 14.5 3.64018988609314 14.5 7.5 C 14.5 11.35980987548828 11.35980987548828 14.5 7.5 14.5 Z" stroke="none"/>
        <path d="M 7.5 1 C 3.915889739990234 1 1 3.915889739990234 1 7.5 C 1 11.08411026000977 3.915889739990234 14 7.5 14 C 11.08411026000977 14 14 11.08411026000977 14 7.5 C 14 3.915889739990234 11.08411026000977 1 7.5 1 M 7.5 0 C 11.64213943481445 0 15 3.35785961151123 15 7.5 C 15 11.64212989807129 11.64213943481445 15 7.5 15 C 3.35785961151123 15 0 11.64212989807129 0 7.5 C 0 3.35785961151123 3.35785961151123 0 7.5 0 Z" stroke="none" fill="#fffef0"/>
      </g>
    </g>
    <g id="Group_231" data-name="Group 231" transform="translate(1075.258 3540.719)">
      <g id="Subtraction_2-3" data-name="Subtraction 2" transform="translate(-0.258 0.281)" fill="#24303b">
        <path d="M 7.5 14.5 C 3.64018988609314 14.5 0.5 11.35980987548828 0.5 7.5 C 0.5 3.64018988609314 3.64018988609314 0.5 7.5 0.5 C 11.35980987548828 0.5 14.5 3.64018988609314 14.5 7.5 C 14.5 11.35980987548828 11.35980987548828 14.5 7.5 14.5 Z" stroke="none"/>
        <path d="M 7.5 1 C 3.915889739990234 1 1 3.915889739990234 1 7.5 C 1 11.08411026000977 3.915889739990234 14 7.5 14 C 11.08411026000977 14 14 11.08411026000977 14 7.5 C 14 3.915889739990234 11.08411026000977 1 7.5 1 M 7.5 0 C 11.64213943481445 0 15 3.35785961151123 15 7.5 C 15 11.64212989807129 11.64213943481445 15 7.5 15 C 3.35785961151123 15 0 11.64212989807129 0 7.5 C 0 3.35785961151123 3.35785961151123 0 7.5 0 Z" stroke="none" fill="#fffef0"/>
      </g>
    </g>
    <g id="Group_232" data-name="Group 232" transform="translate(1094.375 3537.482)">
      <g id="Subtraction_2-4" data-name="Subtraction 2" transform="translate(-0.376 -0.483)" fill="#24303b">
        <path d="M 7.5 14.5 C 3.64018988609314 14.5 0.5 11.35980987548828 0.5 7.5 C 0.5 3.64018988609314 3.64018988609314 0.5 7.5 0.5 C 11.35980987548828 0.5 14.5 3.64018988609314 14.5 7.5 C 14.5 11.35980987548828 11.35980987548828 14.5 7.5 14.5 Z" stroke="none"/>
        <path d="M 7.5 1 C 3.915889739990234 1 1 3.915889739990234 1 7.5 C 1 11.08411026000977 3.915889739990234 14 7.5 14 C 11.08411026000977 14 14 11.08411026000977 14 7.5 C 14 3.915889739990234 11.08411026000977 1 7.5 1 M 7.5 0 C 11.64213943481445 0 15 3.35785961151123 15 7.5 C 15 11.64212989807129 11.64213943481445 15 7.5 15 C 3.35785961151123 15 0 11.64212989807129 0 7.5 C 0 3.35785961151123 3.35785961151123 0 7.5 0 Z" stroke="none" fill="#fffef0"/>
      </g>
    </g>
    <g id="Group_233" data-name="Group 233" transform="translate(1114.727 3572.012)">
      <g id="Subtraction_2-5" data-name="Subtraction 2" transform="translate(0.273 -0.012)" fill="#24303b">
        <path d="M 7.5 14.5 C 3.64018988609314 14.5 0.5 11.35980987548828 0.5 7.5 C 0.5 3.64018988609314 3.64018988609314 0.5 7.5 0.5 C 11.35980987548828 0.5 14.5 3.64018988609314 14.5 7.5 C 14.5 11.35980987548828 11.35980987548828 14.5 7.5 14.5 Z" stroke="none"/>
        <path d="M 7.5 1 C 3.915889739990234 1 1 3.915889739990234 1 7.5 C 1 11.08411026000977 3.915889739990234 14 7.5 14 C 11.08411026000977 14 14 11.08411026000977 14 7.5 C 14 3.915889739990234 11.08411026000977 1 7.5 1 M 7.5 0 C 11.64213943481445 0 15 3.35785961151123 15 7.5 C 15 11.64212989807129 11.64213943481445 15 7.5 15 C 3.35785961151123 15 0 11.64212989807129 0 7.5 C 0 3.35785961151123 3.35785961151123 0 7.5 0 Z" stroke="none" fill="#fffef0"/>
      </g>
    </g>
    <g id="Subtraction_2-6" data-name="Subtraction 2" transform="translate(1081 3588)" fill="#24303b">
      <path d="M 7.5 14.5 C 3.64018988609314 14.5 0.5 11.35980987548828 0.5 7.5 C 0.5 3.64018988609314 3.64018988609314 0.5 7.5 0.5 C 11.35980987548828 0.5 14.5 3.64018988609314 14.5 7.5 C 14.5 11.35980987548828 11.35980987548828 14.5 7.5 14.5 Z" stroke="none"/>
      <path d="M 7.5 1 C 3.915889739990234 1 1 3.915889739990234 1 7.5 C 1 11.08411026000977 3.915889739990234 14 7.5 14 C 11.08411026000977 14 14 11.08411026000977 14 7.5 C 14 3.915889739990234 11.08411026000977 1 7.5 1 M 7.5 0 C 11.64213943481445 0 15 3.35785961151123 15 7.5 C 15 11.64212989807129 11.64213943481445 15 7.5 15 C 3.35785961151123 15 0 11.64212989807129 0 7.5 C 0 3.35785961151123 3.35785961151123 0 7.5 0 Z" stroke="none" fill="#fffef0"/>
    </g>
    <g id="Group_237" data-name="Group 237" transform="translate(1092.022 3575.657)">
      <g id="Subtraction_2-7" data-name="Subtraction 2" transform="translate(-0.022 0.343)" fill="#24303b">
        <path d="M 7.5 14.5 C 3.64018988609314 14.5 0.5 11.35980987548828 0.5 7.5 C 0.5 3.64018988609314 3.64018988609314 0.5 7.5 0.5 C 11.35980987548828 0.5 14.5 3.64018988609314 14.5 7.5 C 14.5 11.35980987548828 11.35980987548828 14.5 7.5 14.5 Z" stroke="none"/>
        <path d="M 7.5 1 C 3.915889739990234 1 1 3.915889739990234 1 7.5 C 1 11.08411026000977 3.915889739990234 14 7.5 14 C 11.08411026000977 14 14 11.08411026000977 14 7.5 C 14 3.915889739990234 11.08411026000977 1 7.5 1 M 7.5 0 C 11.64213943481445 0 15 3.35785961151123 15 7.5 C 15 11.64212989807129 11.64213943481445 15 7.5 15 C 3.35785961151123 15 0 11.64212989807129 0 7.5 C 0 3.35785961151123 3.35785961151123 0 7.5 0 Z" stroke="none" fill="#fffef0"/>
      </g>
    </g>
    <g id="Group_238" data-name="Group 238" transform="translate(1097.67 3599.716)">
      <g id="Subtraction_2-8" data-name="Subtraction 2" transform="translate(0.33 0.284)" fill="#24303b">
        <path d="M 7.5 14.5 C 3.64018988609314 14.5 0.5 11.35980987548828 0.5 7.5 C 0.5 3.64018988609314 3.64018988609314 0.5 7.5 0.5 C 11.35980987548828 0.5 14.5 3.64018988609314 14.5 7.5 C 14.5 11.35980987548828 11.35980987548828 14.5 7.5 14.5 Z" stroke="none"/>
        <path d="M 7.5 1 C 3.915889739990234 1 1 3.915889739990234 1 7.5 C 1 11.08411026000977 3.915889739990234 14 7.5 14 C 11.08411026000977 14 14 11.08411026000977 14 7.5 C 14 3.915889739990234 11.08411026000977 1 7.5 1 M 7.5 0 C 11.64213943481445 0 15 3.35785961151123 15 7.5 C 15 11.64212989807129 11.64213943481445 15 7.5 15 C 3.35785961151123 15 0 11.64212989807129 0 7.5 C 0 3.35785961151123 3.35785961151123 0 7.5 0 Z" stroke="none" fill="#fffef0"/>
      </g>
    </g>
    <g id="Group_239" data-name="Group 239" transform="translate(1026.614 3608.48)">
      <g id="Subtraction_2-9" data-name="Subtraction 2" transform="translate(0.386 -0.481)" fill="#24303b">
        <path d="M 7.5 14.5 C 3.64018988609314 14.5 0.5 11.35980987548828 0.5 7.5 C 0.5 3.64018988609314 3.64018988609314 0.5 7.5 0.5 C 11.35980987548828 0.5 14.5 3.64018988609314 14.5 7.5 C 14.5 11.35980987548828 11.35980987548828 14.5 7.5 14.5 Z" stroke="none"/>
        <path d="M 7.5 1 C 3.915889739990234 1 1 3.915889739990234 1 7.5 C 1 11.08411026000977 3.915889739990234 14 7.5 14 C 11.08411026000977 14 14 11.08411026000977 14 7.5 C 14 3.915889739990234 11.08411026000977 1 7.5 1 M 7.5 0 C 11.64213943481445 0 15 3.35785961151123 15 7.5 C 15 11.64212989807129 11.64213943481445 15 7.5 15 C 3.35785961151123 15 0 11.64212989807129 0 7.5 C 0 3.35785961151123 3.35785961151123 0 7.5 0 Z" stroke="none" fill="#fffef0"/>
      </g>
    </g>
    <g id="Group_286" data-name="Group 286" transform="translate(1008.614 3698.48)">
      <g id="Subtraction_2-10" data-name="Subtraction 2" transform="translate(0.386 -0.481)" fill="#24303b">
        <path d="M 7.5 14.5 C 3.64018988609314 14.5 0.5 11.35980987548828 0.5 7.5 C 0.5 3.64018988609314 3.64018988609314 0.5 7.5 0.5 C 11.35980987548828 0.5 14.5 3.64018988609314 14.5 7.5 C 14.5 11.35980987548828 11.35980987548828 14.5 7.5 14.5 Z" stroke="none"/>
        <path d="M 7.5 1 C 3.915889739990234 1 1 3.915889739990234 1 7.5 C 1 11.08411026000977 3.915889739990234 14 7.5 14 C 11.08411026000977 14 14 11.08411026000977 14 7.5 C 14 3.915889739990234 11.08411026000977 1 7.5 1 M 7.5 0 C 11.64213943481445 0 15 3.35785961151123 15 7.5 C 15 11.64212989807129 11.64213943481445 15 7.5 15 C 3.35785961151123 15 0 11.64212989807129 0 7.5 C 0 3.35785961151123 3.35785961151123 0 7.5 0 Z" stroke="none" fill="#fffef0"/>
      </g>
    </g>
    <g id="Group_298" data-name="Group 298" transform="translate(913.614 3640.48)">
      <g id="Subtraction_2-11" data-name="Subtraction 2" transform="translate(0.386 -0.481)" fill="#24303b">
        <path d="M 7.5 14.5 C 3.64018988609314 14.5 0.5 11.35980987548828 0.5 7.5 C 0.5 3.64018988609314 3.64018988609314 0.5 7.5 0.5 C 11.35980987548828 0.5 14.5 3.64018988609314 14.5 7.5 C 14.5 11.35980987548828 11.35980987548828 14.5 7.5 14.5 Z" stroke="none"/>
        <path d="M 7.5 1 C 3.915889739990234 1 1 3.915889739990234 1 7.5 C 1 11.08411026000977 3.915889739990234 14 7.5 14 C 11.08411026000977 14 14 11.08411026000977 14 7.5 C 14 3.915889739990234 11.08411026000977 1 7.5 1 M 7.5 0 C 11.64213943481445 0 15 3.35785961151123 15 7.5 C 15 11.64212989807129 11.64213943481445 15 7.5 15 C 3.35785961151123 15 0 11.64212989807129 0 7.5 C 0 3.35785961151123 3.35785961151123 0 7.5 0 Z" stroke="none" fill="#fffef0"/>
      </g>
    </g>
    <g id="Group_299" data-name="Group 299" transform="translate(905.614 3687.48)">
      <g id="Subtraction_2-12" data-name="Subtraction 2" transform="translate(0.386 -0.481)" fill="#24303b">
        <path d="M 7.5 14.5 C 3.64018988609314 14.5 0.5 11.35980987548828 0.5 7.5 C 0.5 3.64018988609314 3.64018988609314 0.5 7.5 0.5 C 11.35980987548828 0.5 14.5 3.64018988609314 14.5 7.5 C 14.5 11.35980987548828 11.35980987548828 14.5 7.5 14.5 Z" stroke="none"/>
        <path d="M 7.5 1 C 3.915889739990234 1 1 3.915889739990234 1 7.5 C 1 11.08411026000977 3.915889739990234 14 7.5 14 C 11.08411026000977 14 14 11.08411026000977 14 7.5 C 14 3.915889739990234 11.08411026000977 1 7.5 1 M 7.5 0 C 11.64213943481445 0 15 3.35785961151123 15 7.5 C 15 11.64212989807129 11.64213943481445 15 7.5 15 C 3.35785961151123 15 0 11.64212989807129 0 7.5 C 0 3.35785961151123 3.35785961151123 0 7.5 0 Z" stroke="none" fill="#fffef0"/>
      </g>
    </g>
    <g id="Group_234" data-name="Group 234" transform="translate(1188.55 3479.896)">
      <g id="Subtraction_2-13" data-name="Subtraction 2" transform="translate(0.45 0.104)" fill="#24303b">
        <path d="M 7.5 14.5 C 3.64018988609314 14.5 0.5 11.35980987548828 0.5 7.5 C 0.5 3.64018988609314 3.64018988609314 0.5 7.5 0.5 C 11.35980987548828 0.5 14.5 3.64018988609314 14.5 7.5 C 14.5 11.35980987548828 11.35980987548828 14.5 7.5 14.5 Z" stroke="none"/>
        <path d="M 7.5 1 C 3.915889739990234 1 1 3.915889739990234 1 7.5 C 1 11.08411026000977 3.915889739990234 14 7.5 14 C 11.08411026000977 14 14 11.08411026000977 14 7.5 C 14 3.915889739990234 11.08411026000977 1 7.5 1 M 7.5 0 C 11.64213943481445 0 15 3.35785961151123 15 7.5 C 15 11.64212989807129 11.64213943481445 15 7.5 15 C 3.35785961151123 15 0 11.64212989807129 0 7.5 C 0 3.35785961151123 3.35785961151123 0 7.5 0 Z" stroke="none" fill="#fffef0"/>
      </g>
    </g>
    <g id="Group_235" data-name="Group 235" transform="translate(1160.668 3447.72)">
      <g id="Subtraction_2-14" data-name="Subtraction 2" transform="translate(0.331 0.28)" fill="#24303b">
        <path d="M 7.5 14.5 C 3.64018988609314 14.5 0.5 11.35980987548828 0.5 7.5 C 0.5 3.64018988609314 3.64018988609314 0.5 7.5 0.5 C 11.35980987548828 0.5 14.5 3.64018988609314 14.5 7.5 C 14.5 11.35980987548828 11.35980987548828 14.5 7.5 14.5 Z" stroke="none"/>
        <path d="M 7.5 1 C 3.915889739990234 1 1 3.915889739990234 1 7.5 C 1 11.08411026000977 3.915889739990234 14 7.5 14 C 11.08411026000977 14 14 11.08411026000977 14 7.5 C 14 3.915889739990234 11.08411026000977 1 7.5 1 M 7.5 0 C 11.64213943481445 0 15 3.35785961151123 15 7.5 C 15 11.64212989807129 11.64213943481445 15 7.5 15 C 3.35785961151123 15 0 11.64212989807129 0 7.5 C 0 3.35785961151123 3.35785961151123 0 7.5 0 Z" stroke="none" fill="#fffef0"/>
      </g>
    </g>
  </g>
</svg>
