<svg xmlns="http://www.w3.org/2000/svg" width="86.782" height="79.583" viewBox="0 0 86.782 79.583">
  <g id="Group_106" data-name="Group 106" transform="translate(-236.42 -9437.618)">
    <path id="Path_344" data-name="Path 344" d="M99.649,12.005h-5.4V1.208h10.8v5.4" transform="translate(144.17 9438.41)" fill="none" stroke="#2b3d4a" stroke-width="4"/>
    <path id="Path_345" data-name="Path 345" d="M147.964,12.005h5.4V1.208h-10.8v5.4" transform="translate(167.838 9438.41)" fill="none" stroke="#2b3d4a" stroke-width="4"/>
    <line id="Line_61" data-name="Line 61" x2="50.389" transform="translate(254.617 9441.418)" fill="none" stroke="#2b3d4a" stroke-width="4"/>
    <path id="Path_346" data-name="Path 346" d="M99.649,35.028h-5.4v10.8h10.8v-5.4" transform="translate(144.17 9454.979)" fill="none" stroke="#2b3d4a" stroke-width="4"/>
    <path id="Path_347" data-name="Path 347" d="M147.964,35.028h5.4v10.8h-10.8v-5.4" transform="translate(167.838 9454.979)" fill="none" stroke="#2b3d4a" stroke-width="4"/>
    <line id="Line_62" data-name="Line 62" x2="14.397" transform="translate(254.617 9499.004)" fill="none" stroke="#2b3d4a" stroke-width="4"/>
    <line id="Line_63" data-name="Line 63" x2="14.397" transform="translate(290.608 9499.004)" fill="none" stroke="#2b3d4a" stroke-width="4"/>
    <line id="Line_64" data-name="Line 64" y2="28.793" transform="translate(240.22 9455.814)" fill="none" stroke="#2b3d4a" stroke-width="4"/>
    <line id="Line_65" data-name="Line 65" y2="28.793" transform="translate(319.402 9455.814)" fill="none" stroke="#2b3d4a" stroke-width="4"/>
    <path id="Path_348" data-name="Path 348" d="M118.408,39.86v18l5.4-3.6,5.4,3.6v-18" transform="translate(156.004 9457.345)" fill="none" stroke="#2b3d4a" stroke-linecap="round" stroke-linejoin="round" stroke-width="4"/>
    <line id="Line_66" data-name="Line 66" x2="39.59" transform="translate(260.015 9455.814)" fill="none" stroke="#2b3d4a" stroke-width="4"/>
    <line id="Line_67" data-name="Line 67" x2="25.194" transform="translate(267.214 9463.013)" fill="none" stroke="#2b3d4a" stroke-width="4"/>
    <path id="Path_349" data-name="Path 349" d="M128.714,24.084h0a3.453,3.453,0,0,0,2.987,1.1,3.453,3.453,0,0,1,3.887,3.293,3.537,3.537,0,0,0,1.584,2.789,3.508,3.508,0,0,1,.882,5.058,3.557,3.557,0,0,0-.557,3.167,3.481,3.481,0,0,1-2.539,4.444A3.475,3.475,0,0,0,132.53,46a3.432,3.432,0,0,1-4.769,1.764,3.43,3.43,0,0,0-3.185,0A3.431,3.431,0,0,1,119.806,46a3.474,3.474,0,0,0-2.43-2.069,3.481,3.481,0,0,1-2.537-4.444,3.5,3.5,0,0,0-.557-3.167,3.507,3.507,0,0,1,.882-5.058,3.494,3.494,0,0,0,1.584-2.789,3.453,3.453,0,0,1,3.887-3.293,3.454,3.454,0,0,0,2.987-1.1A3.425,3.425,0,0,1,128.714,24.084Z" transform="translate(153.635 9449.062)" fill="none" stroke="#2b3d4a" stroke-width="4"/>
    <path id="Path_350" data-name="Path 350" d="M129.217,33.18a5.4,5.4,0,1,1-5.4-5.4A5.4,5.4,0,0,1,129.217,33.18Z" transform="translate(156.01 9451.428)" fill="none" stroke="#2b3d4a" stroke-width="4"/>
  </g>
</svg>
