<svg xmlns="http://www.w3.org/2000/svg" width="76.353" height="76.355" viewBox="0 0 76.353 76.355">
  <g id="Group_342" data-name="Group 342" transform="translate(-4144.086 -13438.012)" opacity="0.51">
    <path id="Path_2364" data-name="Path 2364" d="M139.282,9.168a1.612,1.612,0,0,0-.756,3.135A26.629,26.629,0,1,1,126,12.3a1.612,1.612,0,0,0-.756-3.135,29.981,29.981,0,0,0-16.326,10.417,29.528,29.528,0,0,0-6.506,18.6,29.853,29.853,0,1,0,59.706,0,29.537,29.537,0,0,0-6.5-18.6,30,30,0,0,0-16.33-10.417" transform="translate(4050 13438)" fill="#385463"/>
    <path id="Path_2365" data-name="Path 2365" d="M167.808,31.341l.287-3.97a7.712,7.712,0,0,0-2.792-6.825L162.444,18.2l-1.122-3.376a7.776,7.776,0,0,0-5.284-5.588l-3.529-1.066L149.8,5.05a7.737,7.737,0,0,0-6.644-2.688l-3.663.366L135.9.921a7.715,7.715,0,0,0-7.269,0l-3.212,1.722-3.97-.286a7.7,7.7,0,0,0-6.827,2.791l-2.341,2.858L108.9,9.129a7.773,7.773,0,0,0-5.589,5.283l-1.066,3.53-3.125,2.7a7.734,7.734,0,0,0-2.688,6.643l.367,3.663L95,34.552a7.726,7.726,0,0,0,0,7.272l1.722,3.211-.287,3.97a7.714,7.714,0,0,0,2.792,6.827l2.86,2.339,1.12,3.376a7.783,7.783,0,0,0,5.284,5.589l3.528,1.064,2.706,3.127a7.723,7.723,0,0,0,6.644,2.686l3.662-.365,3.6,1.807a7.713,7.713,0,0,0,7.271,0l3.21-1.723,3.971.288a7.728,7.728,0,0,0,6.827-2.791l2.34-2.861,3.376-1.12a7.77,7.77,0,0,0,5.586-5.284l1.067-3.528,3.126-2.705a7.742,7.742,0,0,0,2.688-6.645l-.367-3.664,1.808-3.6a7.724,7.724,0,0,0,0-7.271Zm-1.128,8.976a.444.444,0,0,0-.022.043L164.633,44.4a1.618,1.618,0,0,0-.165.882l.413,4.125a4.52,4.52,0,0,1-1.578,3.88l-3.49,3.019a1.6,1.6,0,0,0-.487.754l-1.2,3.974a4.548,4.548,0,0,1-3.331,3.1c-.041.011-.08.022-.115.035l-3.889,1.29a1.608,1.608,0,0,0-.741.508l-2.637,3.221a4.516,4.516,0,0,1-4,1.628l-4.531-.329a1.563,1.563,0,0,0-.877.185l-3.622,1.943a4.5,4.5,0,0,1-4.246-.009l-4.076-2.046a1.613,1.613,0,0,0-.724-.171c-.053,0-.105,0-.159.007l-4.125.412a4.527,4.527,0,0,1-3.88-1.577l-3.019-3.49a1.6,1.6,0,0,0-.754-.489l-3.975-1.2a4.529,4.529,0,0,1-3.1-3.305c-.013-.048-.025-.1-.041-.14l-1.292-3.891a1.588,1.588,0,0,0-.506-.74l-3.221-2.635a4.52,4.52,0,0,1-1.626-4.029l.328-4.51a1.639,1.639,0,0,0-.186-.876L97.837,40.3a4.5,4.5,0,0,1,.009-4.247L97.736,36l.131.022L99.89,31.98a1.582,1.582,0,0,0,.165-.881l-.413-4.126a4.525,4.525,0,0,1,1.58-3.881l3.489-3.02a1.582,1.582,0,0,0,.488-.753l1.2-3.974a4.532,4.532,0,0,1,3.3-3.094,1.3,1.3,0,0,0,.148-.041l3.889-1.291a1.627,1.627,0,0,0,.741-.509l2.635-3.221a4.516,4.516,0,0,1,4.01-1.626l.058.006,4.469.322a1.568,1.568,0,0,0,.876-.186l3.622-1.941a4.5,4.5,0,0,1,4.254.012l4.068,2.042a1.639,1.639,0,0,0,.883.163l4.124-.411a4.517,4.517,0,0,1,3.882,1.577l3.02,3.49a1.6,1.6,0,0,0,.751.488l3.977,1.2a4.541,4.541,0,0,1,3.094,3.3,1.168,1.168,0,0,0,.042.146l1.289,3.89a1.628,1.628,0,0,0,.508.738l3.223,2.637a4.511,4.511,0,0,1,1.626,4.009.6.6,0,0,1-.006.06l-.322,4.468a1.6,1.6,0,0,0,.185.876l1.941,3.621a4.5,4.5,0,0,1-.006,4.245" transform="translate(4050 13438)" fill="#385463"/>
    <path id="Path_2366" data-name="Path 2366" d="M125.872,29.934a1.619,1.619,0,0,0-1.4-.819h-7.854A1.613,1.613,0,0,0,115,30.726v22.5a1.613,1.613,0,0,0,1.611,1.612h7.854a1.6,1.6,0,0,0,1.443-.9,28.644,28.644,0,0,1,3.391.8l.042.012a21.423,21.423,0,0,0,5.688,1.027h8.582a6.086,6.086,0,0,0,5.866-3.842,5.465,5.465,0,0,0,.295-3.34,5.473,5.473,0,0,0,1.2-1.628,5.8,5.8,0,0,0,.433-4.032,5.515,5.515,0,0,0,1.422-2.537,5.428,5.428,0,0,0,.047-2.67,4.6,4.6,0,0,0,.8-7.272,4.774,4.774,0,0,0-3.31-1.3H138.33a3.9,3.9,0,0,1-.628-3.8,7.827,7.827,0,0,0-.219-7.2c-.926-1.76-3.431-3.51-5.527-3.211a2.936,2.936,0,0,0-2.5,2.443,8.539,8.539,0,0,0-.124,1.27l.124.006-.126.029a10.392,10.392,0,0,1-1.14,4.641,12.515,12.515,0,0,0-1.129,3.9c-.274,1.62-.4,2.393-1.184,2.711m-3.014,21.681h-4.63V32.338h4.63Zm6.521,3.012Zm.853-26.866-.123-.021.126.005a9.907,9.907,0,0,1,.806-2.924,13.619,13.619,0,0,0,1.5-5.988l.005-.084c.012-.23.023-.45.043-.616a3.53,3.53,0,0,1,2.04,1.518,4.643,4.643,0,0,1,.1,4.46,6.98,6.98,0,0,0-.012,5.087,1.61,1.61,0,0,0,.375,3.176h15.275a1.571,1.571,0,0,1,1.087.413,1.4,1.4,0,0,1,.427,1.043,1.47,1.47,0,0,1-1.474,1.38l-3.824.084a1.61,1.61,0,0,0-1.577,1.646,1.62,1.62,0,0,0,1.61,1.576l3.127-.067a2.411,2.411,0,0,1-.087,1.333,1.869,1.869,0,0,1-1.825,1.379,1.612,1.612,0,1,0,0,3.224c.183,0,.364-.009.54-.026a2.847,2.847,0,0,1-.289,1.19A1.872,1.872,0,0,1,146.36,46.7a1.611,1.611,0,0,0,0,3.222q.17,0,.327-.009a2.7,2.7,0,0,1-.21.848,2.906,2.906,0,0,1-2.861,1.791h-8.582a18.666,18.666,0,0,1-4.822-.911l-.051-.014a29.2,29.2,0,0,0-4.079-.918V33.2c3.343-.66,3.809-3.419,4.15-5.439" transform="translate(4050 13438)" fill="#385463"/>
    <path id="Path_2367" data-name="Path 2367" d="M132.262,11.558a1.611,1.611,0,1,0-1.612-1.612,1.614,1.614,0,0,0,1.612,1.612" transform="translate(4050 13438)" fill="#385463"/>
  </g>
</svg>
