<svg xmlns="http://www.w3.org/2000/svg" width="59.528" height="58.468" viewBox="0 0 59.528 58.468">
  <g id="Group_42" data-name="Group 42" transform="translate(7.017 9.795)">
    <path id="Path_193" data-name="Path 193" d="M156.391,53.261a3.106,3.106,0,0,1,.887-2.737c1.087-1.087,8.785-10.147,9.872-11.233.987-.988.962-11.8.887-13.259-.074-1.4-.312-8.76-1.4-11.483a5.029,5.029,0,0,0-4.423,2.649c-1.2,1.924-1,3.96,0,7.072l-1.95,6.148" transform="translate(-116.575 -10.835)" fill="none" stroke="#e84752" stroke-linejoin="round" stroke-width="2"/>
    <path id="Path_194" data-name="Path 194" d="M154.74,42.671s4.936-5.048,5.823-5.935c3.536-3.536-.888-7.948-4.424-4.424-.887.888-.962,1.075-3.423,3.536-.737.737-1.75.35-2.925,1.512-.512.513-3.286,3.224-4.485,4.424s-1.762,3.648-1.762,5.3v7.16" transform="translate(-115.811 -11.817)" fill="none" stroke="#e84752" stroke-linejoin="round" stroke-width="2"/>
    <path id="Path_195" data-name="Path 195" d="M158.394,61.96V55.713H140.9V61.96" transform="translate(-115.653 -13.287)" fill="none" stroke="#e84752" stroke-linejoin="round" stroke-width="2"/>
    <line id="Line_5" data-name="Line 5" x2="2.499" transform="translate(28.995 46.174)" fill="none" stroke="#e84752" stroke-linejoin="round" stroke-width="2"/>
    <path id="Path_196" data-name="Path 196" d="M119.354,53.261a3.106,3.106,0,0,0-.887-2.737c-1.087-1.074-8.785-10.147-9.872-11.233-.987-.988-.962-11.8-.887-13.259.075-1.4.312-8.76,1.4-11.483A5.029,5.029,0,0,1,113.53,17.2c1.2,1.924,1,3.96,0,7.072l1.95,6.148" transform="translate(-113.676 -10.835)" fill="none" stroke="#e84752" stroke-linejoin="round" stroke-width="2"/>
    <path id="Path_197" data-name="Path 197" d="M120.585,42.671s-4.936-5.048-5.823-5.935c-3.536-3.536.888-7.948,4.424-4.424.887.888.962,1.075,3.423,3.536.737.737,1.75.35,2.925,1.512.512.513,3.286,3.224,4.485,4.424s1.713,3.648,1.762,5.3v7.16" transform="translate(-114.02 -11.817)" fill="none" stroke="#e84752" stroke-linejoin="round" stroke-width="2"/>
    <path id="Path_198" data-name="Path 198" d="M116.984,61.96V55.713h17.494V61.96" transform="translate(-114.23 -13.287)" fill="none" stroke="#e84752" stroke-linejoin="round" stroke-width="2"/>
    <line id="Line_6" data-name="Line 6" x1="2.499" transform="translate(14 46.174)" fill="none" stroke="#e84752" stroke-linejoin="round" stroke-width="2"/>
    <path id="Path_199" data-name="Path 199" d="M135.373,28.628c-4.936-1.849-7.372-8.035-6.573-11.321C130.924,8.5,139.3,7.648,142.87,1.25c5.411,3.961,7.46,12.083,5.036,19.38-1.637,4.911-6.249,6.549-8.723,7.086" transform="translate(-114.924 -10.045)" fill="none" stroke="#e84752" stroke-linejoin="round" stroke-width="2"/>
    <path id="Path_200" data-name="Path 200" d="M137.034,36.758c-3.723-10.759,1.8-18.919,4.936-25.941" transform="translate(-115.349 -10.614)" fill="none" stroke="#e84752" stroke-linejoin="round" stroke-width="2"/>
  </g>
</svg>
