<svg xmlns="http://www.w3.org/2000/svg" width="82.489" height="117.841" viewBox="0 0 82.489 117.841">
  <g id="noun-health-checklist-4339941" transform="translate(-153.998 0)">
    <path id="Path_355" data-name="Path 355" d="M258.852,168.687a3.461,3.461,0,0,0,4.9,0L281.314,151.1a12.1,12.1,0,0,0-17.11-17.125l-2.9,2.913-2.906-2.913a12.1,12.1,0,1,0-17.115,17.121Zm-14.793-31.939a8.16,8.16,0,0,1,11.554,0l3.769,3.773h0a2.719,2.719,0,0,0,3.84,0l3.767-3.771a8.176,8.176,0,0,1,11.558,11.566L261.3,165.578l-17.244-17.264a8.172,8.172,0,0,1,0-11.565Z" transform="translate(-66.059 -102.926)" fill="#fff"/>
    <path id="Path_356" data-name="Path 356" d="M163.819,117.841h62.847a9.831,9.831,0,0,0,9.82-9.82V19.64a9.831,9.831,0,0,0-9.82-9.82H214.882a3.928,3.928,0,0,0-3.927-3.928h-3.928A5.891,5.891,0,0,0,201.134,0H189.35a5.891,5.891,0,0,0-5.892,5.892H179.53A3.928,3.928,0,0,0,175.6,9.82H163.818A9.831,9.831,0,0,0,154,19.64V108.02a9.831,9.831,0,0,0,9.82,9.82ZM176.149,21.6a3.915,3.915,0,0,0,3.382,1.964h31.426a3.915,3.915,0,0,0,3.382-1.964H224.7v84.452h-58.92V21.6Zm3.382-11.784h5.892a1.965,1.965,0,0,0,1.965-1.965V5.892a1.963,1.963,0,0,1,1.964-1.964h11.784A1.962,1.962,0,0,1,203.1,5.892V7.856a1.965,1.965,0,0,0,1.965,1.965h5.892v9.82H179.53Zm-21.6,9.82a5.892,5.892,0,0,1,5.892-5.892H175.6v3.928h-9.82a3.929,3.929,0,0,0-3.928,3.928v84.452a3.929,3.929,0,0,0,3.928,3.928H224.7a3.929,3.929,0,0,0,3.928-3.928V21.6a3.929,3.929,0,0,0-3.928-3.928h-9.82V13.748h11.784a5.892,5.892,0,0,1,5.892,5.892v88.381a5.891,5.891,0,0,1-5.892,5.892H163.821a5.891,5.891,0,0,1-5.892-5.892Z" transform="translate(0)" fill="#fff"/>
    <path id="Path_357" data-name="Path 357" d="M333.3,50.6h3.927a1.964,1.964,0,1,0,0-3.927H333.3a1.964,1.964,0,1,0,0,3.927Z" transform="translate(-140.019 -36.848)" fill="#fff"/>
    <path id="Path_358" data-name="Path 358" d="M233.272,351.131a1.965,1.965,0,0,0,1.389.575,1.352,1.352,0,0,0,.2-.01,1.966,1.966,0,0,0,1.439-.865l7.856-11.784a1.964,1.964,0,0,0-3.268-2.18l-6.527,9.792-2.235-2.235h0a1.964,1.964,0,0,0-2.778,2.778Z" transform="translate(-59.058 -265.291)" fill="#fff"/>
    <path id="Path_359" data-name="Path 359" d="M333.3,354.67a1.964,1.964,0,1,0,0,3.927H358.83a1.964,1.964,0,1,0,0-3.927Z" transform="translate(-140.019 -280.037)" fill="#fff"/>
    <path id="Path_360" data-name="Path 360" d="M333.3,395.93h9.82a1.964,1.964,0,1,0,0-3.928H333.3a1.964,1.964,0,1,0,0,3.928Z" transform="translate(-140.019 -309.513)" fill="#fff"/>
    <path id="Path_361" data-name="Path 361" d="M233.272,425.8a1.965,1.965,0,0,0,1.389.575,1.352,1.352,0,0,0,.2-.01,1.962,1.962,0,0,0,1.439-.864l7.856-11.784a1.964,1.964,0,1,0-3.268-2.18l-6.527,9.792-2.235-2.235h0a1.964,1.964,0,0,0-2.778,2.777Z" transform="translate(-59.058 -324.251)" fill="#fff"/>
    <path id="Path_362" data-name="Path 362" d="M358.83,429.33H333.3a1.964,1.964,0,1,0,0,3.928H358.83a1.964,1.964,0,0,0,0-3.928Z" transform="translate(-140.019 -338.986)" fill="#fff"/>
    <path id="Path_363" data-name="Path 363" d="M343.114,466.67h-9.819a1.964,1.964,0,1,0,0,3.927h9.819a1.964,1.964,0,1,0,0-3.927Z" transform="translate(-140.016 -368.469)" fill="#fff"/>
    <path id="Path_364" data-name="Path 364" d="M284.328,195.164a1.964,1.964,0,1,0,2.781-2.775l-5.216-5.225h0a1.966,1.966,0,1,0-2.781,2.779Z" transform="translate(-98.332 -147.325)" fill="#fff"/>
  </g>
</svg>
