<svg width="25" height="25" viewBox="0 0 25 25" fill="none" xmlns="http://www.w3.org/2000/svg">
<path d="M12.4989 0.391701C10.9692 0.385351 9.45334 0.681965 8.03885 1.26443C6.62436 1.84689 5.3392 2.70368 4.25752 3.78536C3.17585 4.86703 2.31906 6.15219 1.7366 7.56668C1.15413 8.98117 0.857519 10.497 0.863869 12.0267V21.0767C0.863869 22.1052 1.27244 23.0916 1.99971 23.8189C2.72698 24.5461 3.71336 24.9547 4.74187 24.9547H8.61987V14.6127H3.44987V12.0267C3.44987 9.62649 4.40335 7.32459 6.10055 5.62738C7.79776 3.93018 10.0997 2.9767 12.4999 2.9767C14.9001 2.9767 17.202 3.93018 18.8992 5.62738C20.5964 7.32459 21.5499 9.62649 21.5499 12.0267V14.6127H16.3779V24.9547H20.2559C21.2844 24.9547 22.2708 24.5461 22.998 23.8189C23.7253 23.0916 24.1339 22.1052 24.1339 21.0767V12.0267C24.137 10.4979 23.8382 8.98349 23.2547 7.57044C22.6711 6.15739 21.8142 4.8735 20.7331 3.79246C19.6521 2.71142 18.3682 1.85451 16.9551 1.27092C15.5421 0.687327 14.0277 0.388538 12.4989 0.391701V0.391701Z" fill="#385463"/>
</svg>
