<svg xmlns="http://www.w3.org/2000/svg" width="76.288" height="75.622" viewBox="0 0 76.288 75.622" fill="#385463">
  <g id="Group_340" data-name="Group 340" transform="translate(0 0)">
    <path id="Path_2372" data-name="Path 2372" d="M313.782,72.251a34.984,34.984,0,0,1-25.8-43.229,3.91,3.91,0,0,1,.234-.624,1.591,1.591,0,1,0-2.869-1.377,6.788,6.788,0,0,0-.43,1.157A38.166,38.166,0,0,0,313.059,75.35a1.605,1.605,0,0,0,.363.042,1.591,1.591,0,0,0,.36-3.141" transform="translate(-283.56 -0.378)" />
    <path id="Path_2373" data-name="Path 2373" d="M291.218,17.916a1.573,1.573,0,0,0,.934.3,1.592,1.592,0,0,0,1.287-.656A35.041,35.041,0,0,1,316.91,3.54a1.587,1.587,0,0,0,.732-2.846,1.556,1.556,0,0,0-1.168-.3A38.243,38.243,0,0,0,290.863,15.7a1.584,1.584,0,0,0,.355,2.215" transform="translate(-283.56 -0.378)" />
    <path id="Path_2374" data-name="Path 2374" d="M338.576,3.95A38.281,38.281,0,0,0,330.324,1,1.594,1.594,0,0,0,328.416,2.2a1.6,1.6,0,0,0,1.192,1.91,34.984,34.984,0,0,1-3.052,68.723A1.592,1.592,0,0,0,326.771,76a1.511,1.511,0,0,0,.22-.015A38.169,38.169,0,0,0,338.576,3.95" transform="translate(-283.56 -0.378)" />
    <path id="Path_2375" data-name="Path 2375" d="M321.732,14.927a1.466,1.466,0,0,0,1.448-1.481V9.6a1.448,1.448,0,1,0-2.9,0v3.842a1.466,1.466,0,0,0,1.448,1.481" transform="translate(-283.56 -0.378)" />
    <path id="Path_2376" data-name="Path 2376" d="M336.437,15.091,333.729,17.8a1.488,1.488,0,0,0,.005,2.091,1.478,1.478,0,0,0,2.085,0l2.707-2.7a1.477,1.477,0,0,0-2.089-2.09" transform="translate(-283.56 -0.378)" />
    <path id="Path_2377" data-name="Path 2377" d="M305.984,49.111a1.456,1.456,0,0,0,1.042-.432l2.706-2.705a1.477,1.477,0,0,0-2.089-2.09l-2.707,2.706a1.477,1.477,0,0,0,1.048,2.521" transform="translate(-283.56 -0.378)" />
    <path id="Path_2378" data-name="Path 2378" d="M308.688,20.444a1.6,1.6,0,0,0,1.133-2.736L307.116,15a1.642,1.642,0,0,0-2.267,0,1.6,1.6,0,0,0,0,2.265l2.7,2.7a1.591,1.591,0,0,0,1.134.471" transform="translate(-283.56 -0.378)" />
    <path id="Path_2379" data-name="Path 2379" d="M335.82,43.884a1.477,1.477,0,0,0-2.089,2.089l2.7,2.7a1.464,1.464,0,0,0,1.046.434,1.477,1.477,0,0,0,1.047-2.521Z" transform="translate(-283.56 -0.378)" />
    <path id="Path_2380" data-name="Path 2380" d="M303.293,30.437h-3.842a1.449,1.449,0,1,0,0,2.9h3.84a1.449,1.449,0,1,0,0-2.9" transform="translate(-283.56 -0.378)" />
    <path id="Path_2381" data-name="Path 2381" d="M340.17,33.334h3.842a1.449,1.449,0,1,0,0-2.9H340.17a1.449,1.449,0,1,0,0,2.9" transform="translate(-283.56 -0.378)" />
    <path id="Path_2382" data-name="Path 2382" d="M327.394,63.733a3.039,3.039,0,0,0,1.6-2.66v-.9a1.493,1.493,0,0,0,0-2.92V56.3a1.492,1.492,0,0,0,0-2.919l-.007-2.239.016-.1a11.729,11.729,0,0,1,.9-2.925,1.5,1.5,0,0,0-.736-1.979,1.491,1.491,0,0,0-1.977.738,14.745,14.745,0,0,0-.9,2.6h-9.164a14.786,14.786,0,0,0-4.418-7.469,13.5,13.5,0,0,1-4.415-8.589,1.491,1.491,0,1,0-2.965.321,16.478,16.478,0,0,0,5.386,10.49A11.724,11.724,0,0,1,314.392,51l.014,2.391a1.485,1.485,0,0,0-1.152,1.452,1.506,1.506,0,0,0,1.153,1.454v.968a1.492,1.492,0,0,0,0,2.906v.9a3.038,3.038,0,0,0,1.6,2.66,5.725,5.725,0,0,0,3.141,4.367,1.518,1.518,0,0,0,1.995-.672,1.494,1.494,0,0,0-.67-2,2.762,2.762,0,0,1-1.292-1.34h5.033a2.751,2.751,0,0,1-1.291,1.34,1.494,1.494,0,0,0,.665,2.831,1.519,1.519,0,0,0,.664-.157,5.718,5.718,0,0,0,3.138-4.365m-1.379-6.509h-8.624v-.887h8.624Zm-8.625-4.762h8.623v.888H317.39Zm8.625,7.748v.863a.029.029,0,0,1-.026.026h-8.576a.025.025,0,0,1-.023-.026V60.21Z" transform="translate(-283.56 -0.378)" />
    <path id="Path_2383" data-name="Path 2383" d="M321.732,36.928a5.043,5.043,0,1,0-5.042-5.043,5.048,5.048,0,0,0,5.042,5.043m0-7.113a2.07,2.07,0,1,1-2.07,2.07,2.072,2.072,0,0,1,2.07-2.07" transform="translate(-283.56 -0.378)" />
    <path id="Path_2384" data-name="Path 2384" d="M320.474,43.506h2.517a2.071,2.071,0,0,0,2.068-2.071v-1.3l.157-.064.916.915a2.069,2.069,0,0,0,1.459.591h0a2.089,2.089,0,0,0,1.464-.588l1.781-1.781a2.077,2.077,0,0,0,0-2.927l-.917-.917c.021-.051.043-.1.064-.155h1.3a2.07,2.07,0,0,0,2.068-2.068V30.627a2.071,2.071,0,0,0-2.068-2.07h-1.3c-.021-.052-.043-.1-.064-.154l.918-.919a2.073,2.073,0,0,0,0-2.925l-1.782-1.781a2.077,2.077,0,0,0-1.463-.586h0a2.064,2.064,0,0,0-1.46.587l-.917.917-.157-.064v-1.3a2.071,2.071,0,0,0-2.068-2.071h-2.517a2.073,2.073,0,0,0-2.07,2.071v1.3l-.154.065-.918-.918a2.073,2.073,0,0,0-2.927,0l-1.778,1.78a2.068,2.068,0,0,0,0,2.926l.917.918c-.022.051-.043.1-.065.154h-1.3a2.072,2.072,0,0,0-2.069,2.07v2.518a2.071,2.071,0,0,0,2.069,2.068h1.3c.022.052.043.1.065.155l-.917.917a2.074,2.074,0,0,0,0,2.927l1.778,1.779a2.073,2.073,0,0,0,2.928,0l.918-.917.154.064v1.3a2.073,2.073,0,0,0,2.07,2.071m-4.062-6.789a1.489,1.489,0,0,0,.23-1.819A5.938,5.938,0,0,1,316,33.353a1.491,1.491,0,0,0-1.444-1.124H313.1v-.688h1.46A1.49,1.49,0,0,0,316,30.42a5.942,5.942,0,0,1,.642-1.549,1.489,1.489,0,0,0-.227-1.816l-1.034-1.033.487-.488,1.035,1.037a1.5,1.5,0,0,0,1.813.225,5.906,5.906,0,0,1,1.549-.642,1.489,1.489,0,0,0,1.123-1.445v-1.46h.689v1.46a1.49,1.49,0,0,0,1.122,1.445,5.889,5.889,0,0,1,1.545.64,1.5,1.5,0,0,0,1.819-.225l1.033-1.035.488.488-1.036,1.033a1.493,1.493,0,0,0-.227,1.815,5.978,5.978,0,0,1,.643,1.548,1.489,1.489,0,0,0,1.445,1.123h1.46v.688h-1.46a1.489,1.489,0,0,0-1.445,1.123,5.939,5.939,0,0,1-.642,1.547,1.491,1.491,0,0,0,.228,1.816l1.034,1.034-.488.487L326.563,37.2a1.49,1.49,0,0,0-1.816-.228,5.869,5.869,0,0,1-1.55.641,1.494,1.494,0,0,0-1.12,1.447v1.458h-.689V39.063a1.494,1.494,0,0,0-1.123-1.447,5.9,5.9,0,0,1-1.547-.64,1.5,1.5,0,0,0-1.818.227l-1.032,1.033-.487-.487Z" transform="translate(-283.56 -0.378)" />
    <path id="Path_2385" data-name="Path 2385" d="M310.889,19.5A16.544,16.544,0,0,0,305.358,29.8a1.494,1.494,0,0,0,2.963.379,13.644,13.644,0,0,1,13.411-11.817h.172a13.514,13.514,0,0,1,8.921,23.518,15.684,15.684,0,0,0-1.334,1.372,1.493,1.493,0,1,0,2.267,1.944,12.933,12.933,0,0,1,1.075-1.107,16.5,16.5,0,0,0-10.892-28.713A16.332,16.332,0,0,0,310.889,19.5" transform="translate(-283.56 -0.378)" />
  </g>
</svg>
