<svg xmlns="http://www.w3.org/2000/svg" width="52.206" height="48.805" viewBox="0 0 52.206 48.805">
  <g id="Group_37" data-name="Group 37" transform="translate(10 12.456)">
    <path id="Path_240" data-name="Path 240" d="M684.732,35.183a8.121,8.121,0,0,0,8.353-8.353V22.653a8.353,8.353,0,0,0-16.706,0V26.83A8.121,8.121,0,0,0,684.732,35.183Z" transform="translate(-675.981 -25.756)" fill="none" stroke="#e84752" stroke-width="2"/>
    <path id="Path_241" data-name="Path 241" d="M665.508,59.833V51.479c0-6.348,11.9-9.4,17.75-9.4a29.137,29.137,0,0,1,6.265.794l2.869,1.164" transform="translate(-674.508 -29.522)" fill="none" stroke="#e84752" stroke-width="2"/>
    <path id="Path_242" data-name="Path 242" d="M708.774,50.427c0,2.025-3.649,3.668-8.151,3.668s-8.15-1.642-8.15-3.668,3.649-3.668,8.15-3.668S708.774,48.4,708.774,50.427Z" transform="translate(-678.163 -30.156)" fill="none" stroke="#e84752" stroke-linejoin="round" stroke-width="2"/>
    <path id="Path_243" data-name="Path 243" d="M708.774,57.6c0,2.03-3.651,3.668-8.151,3.668s-8.15-1.638-8.15-3.668" transform="translate(-678.163 -31.625)" fill="none" stroke="#e84752" stroke-linejoin="round" stroke-width="2"/>
    <path id="Path_244" data-name="Path 244" d="M692.473,51V62.413c0,2.03,3.651,3.668,8.151,3.668s8.15-1.638,8.15-3.668V51" transform="translate(-678.163 -30.731)" fill="none" stroke="#e84752" stroke-linejoin="round" stroke-width="2"/>
    <path id="Path_245" data-name="Path 245" d="M721.031,31.57c0,2.025-3.649,3.668-8.151,3.668s-8.15-1.642-8.15-3.668,3.649-3.668,8.15-3.668S721.031,29.544,721.031,31.57Z" transform="translate(-679.825 -27.6)" fill="none" stroke="#e84752" stroke-linecap="round" stroke-linejoin="round" stroke-width="2"/>
    <path id="Path_246" data-name="Path 246" d="M721.031,38.745c0,2.03-3.651,3.668-8.151,3.668s-8.15-1.638-8.15-3.668" transform="translate(-679.825 -29.07)" fill="none" stroke="#e84752" stroke-linecap="round" stroke-linejoin="round" stroke-width="2"/>
    <path id="Path_247" data-name="Path 247" d="M714.159,47.224c4.5,0,8.15-1.638,8.15-3.668V32.145" transform="translate(-681.103 -28.175)" fill="none" stroke="#e84752" stroke-linecap="round" stroke-linejoin="round" stroke-width="2"/>
    <line id="Line_11" data-name="Line 11" y2="10.327" transform="translate(24.905 3.97)" fill="none" stroke="#e84752" stroke-linecap="round" stroke-linejoin="round" stroke-width="2"/>
    <path id="Path_248" data-name="Path 248" d="M722.309,51.945c0,2.03-3.651,3.668-8.151,3.668" transform="translate(-681.103 -30.859)" fill="none" stroke="#e84752" stroke-linecap="round" stroke-linejoin="round" stroke-width="2"/>
    <path id="Path_249" data-name="Path 249" d="M714.159,60.424c4.5,0,8.15-1.638,8.15-3.668V45.345" transform="translate(-681.103 -29.964)" fill="none" stroke="#e84752" stroke-linecap="round" stroke-linejoin="round" stroke-width="2"/>
  </g>
</svg>
