<svg xmlns="http://www.w3.org/2000/svg" width="208" height="87.873" viewBox="0 0 208 87.873">
  <g id="Group_147" data-name="Group 147" transform="translate(-2508.126 -310.684)">
    <path id="Path_65" data-name="Path 65" d="M1118.1,1667.829h-8.3v23.366h-4.9v-23.366H1100v-4.312h4.9v-3.3c0-5.27,3.406-9.049,8.73-9.049a16.725,16.725,0,0,1,3.992.479v4.258a14.475,14.475,0,0,0-3.087-.319c-2.928,0-4.738,1.383-4.738,4.79v3.141h8.3Z" transform="translate(1408.126 -1293.438)" fill="#e3e0b0"/>
    <path id="Path_66" data-name="Path 66" d="M1182.979,1706.951c0,6.174,4.151,10.166,9.74,10.166,5.7,0,9.793-3.992,9.793-10.166,0-6.121-4.1-10.167-9.793-10.167s-9.74,4.045-9.74,10.167m24.59,0c0,8.676-6.494,14.691-14.85,14.691-8.3,0-14.744-6.015-14.744-14.691s6.44-14.691,14.744-14.691c8.356,0,14.85,6.014,14.85,14.691" transform="translate(1351.868 -1323.085)" fill="#e3e0b0"/>
    <path id="Path_67" data-name="Path 67" d="M1304.713,1706.951c0,6.174,4.152,10.166,9.74,10.166,5.7,0,9.793-3.992,9.793-10.166,0-6.121-4.1-10.167-9.793-10.167s-9.74,4.045-9.74,10.167m24.591,0c0,8.676-6.494,14.691-14.85,14.691-8.3,0-14.744-6.015-14.744-14.691s6.441-14.691,14.744-14.691c8.356,0,14.85,6.014,14.85,14.691" transform="translate(1264.037 -1323.085)" fill="#e3e0b0"/>
    <path id="Path_68" data-name="Path 68" d="M1446.036,1679.7c0-5.748-3.885-10.272-9.794-10.272-6.121,0-9.794,4.524-9.794,10.272,0,5.7,3.673,10.167,9.794,10.167,5.908,0,9.794-4.418,9.794-10.167m3.673,13.839-3.46-10.485-.532,6.706a12.723,12.723,0,0,1-10.272,4.578c-8.463,0-14-6.441-14-14.637,0-8.25,5.536-14.743,14-14.743a12.538,12.538,0,0,1,10.432,4.949v-15.489h4.9v27.146l4.1,11.976Z" transform="translate(1176.205 -1295.783)" fill="#e3e0b0"/>
    <path id="Path_69" data-name="Path 69" d="M1576.122,1700.349l-4.684,1.756c-.213-3.566-2.715-5.8-6.919-5.8-3.779,0-6.015,1.809-6.015,4.151,0,6.547,17.991,1.863,17.991,12.721,0,5.429-4.578,8.463-11.5,8.463-7.132,0-11.6-3.513-12.455-8.516l4.791-2.022c.213,4.2,3.193,6.493,7.664,6.493,3.513,0,6.228-1.224,6.228-4.1,0-6.494-17.778-1.65-17.778-12.722,0-4.949,5.057-8.516,11.072-8.516,6.441,0,10.911,3.247,11.6,8.091" transform="translate(1081.62 -1323.084)" fill="#e3e0b0"/>
    <rect id="Rectangle_15" data-name="Rectangle 15" width="6.919" height="27.678" transform="translate(2555.419 322.448)" fill="#2b3d4a"/>
    <path id="Path_70" data-name="Path 70" d="M1344.815,1533.307v16.235H1337.9v-15.223c0-4.95-1.65-7.079-5.482-7.079-4.045,0-6.388,2.821-6.388,7.665v14.637h-6.919v-27.678h6.919v8.037l1.543-6.28a9.011,9.011,0,0,1,7.08-2.768c6.6,0,10.167,4.364,10.167,12.455" transform="translate(1250.042 -1199.415)" fill="#2b3d4a"/>
    <path id="Path_71" data-name="Path 71" d="M1435.68,1532.935h12.455c0-3.78-2.182-6.334-6.015-6.334-3.247,0-5.748,1.917-6.44,6.334m19.64,4.9h-19.693c.639,4.844,3.406,6.76,7.239,6.76,3.619,0,5.908-1.437,7.345-4.63l4.9,4.47c-2.714,3.992-7.239,5.908-12.455,5.908-8.889,0-14.371-6.068-14.371-14.53,0-8.676,5.855-14.957,14.052-14.957,8.037,0,13.147,5.854,13.147,14.318a16.077,16.077,0,0,1-.16,2.661" transform="translate(1171.273 -1199.416)" fill="#2b3d4a"/>
    <path id="Path_72" data-name="Path 72" d="M1562.132,1522.424v6.76a11.582,11.582,0,0,0-3.566-.533c-3.938,0-6.547,2.928-6.547,8.357v13.36H1545.1V1522.69h6.919v9.1l1.543-7.239a7.925,7.925,0,0,1,5.8-2.555,6.872,6.872,0,0,1,2.768.426" transform="translate(1086.989 -1200.242)" fill="#2b3d4a"/>
    <path id="Path_73" data-name="Path 73" d="M1646.577,1524.484l-11.124,27.677h-7.292l-11.337-27.677h7.611l7.4,19.587,7.345-19.587Z" transform="translate(1035.241 -1202.036)" fill="#2b3d4a"/>
    <path id="Path_74" data-name="Path 74" d="M1747.321,1535.7c0-5.216-3.673-8.569-8.091-8.569-4.631,0-8.09,3.459-8.09,8.569,0,5,3.459,8.357,8.09,8.357a7.957,7.957,0,0,0,8.091-8.357m3.566,13.839-3.247-10.06-.479,6.973a11.492,11.492,0,0,1-9.208,3.885c-8.251,0-14-6.281-14-14.637,0-8.463,5.7-14.85,13.946-14.85a11.94,11.94,0,0,1,9.155,3.885v-2.874h6.919v15.275l4.2,12.4Z" transform="translate(957.947 -1199.415)" fill="#2b3d4a"/>
    <path id="Path_75" data-name="Path 75" d="M1141.516,1530.626v17.954h-7.009v-16.822c0-3.882-1.725-5.823-4.853-5.823-3.613,0-5.392,2.588-5.392,7.171v15.474h-7.009v-16.769c0-2.965-1.24-5.876-4.744-5.876-3.558,0-5.338,2.857-5.5,7.279v15.366H1100v-28.037h7.01v7.71l1.671-6.47a8.379,8.379,0,0,1,6.039-2.264c4.96,0,8.518,3.18,9.381,8.41l1.509-6.146a8.179,8.179,0,0,1,5.985-2.264c6.2,0,9.92,3.935,9.92,11.106" transform="translate(1408.126 -1198.454)" fill="#2b3d4a"/>
    <path id="Path_76" data-name="Path 76" d="M1266.088,1486.71a4.466,4.466,0,1,1,4.466,4.466,4.466,4.466,0,0,1-4.466-4.466" transform="translate(1288.295 -1171.56)" fill="#2b3d4a"/>
  </g>
</svg>
