<svg xmlns="http://www.w3.org/2000/svg" xmlns:xlink="http://www.w3.org/1999/xlink" width="936.709" height="535.233" viewBox="0 0 936.709 535.233">
  <defs>
    <clipPath id="clip-path">
      <path id="Path_327" data-name="Path 327" d="M0,132.043H936.709V-403.19H0Z" transform="translate(-172.072 403.19)" fill="#385463"/>
    </clipPath>
  </defs>
  <g id="Group_99" data-name="Group 99" transform="translate(172.072)" opacity="0.59" clip-path="url(#clip-path)">
    <path id="Path_326" data-name="Path 326" d="M270.785,72.442v366.2H127.83V95.54c0-79.182-35.2-118.766-98.992-118.766-73.676,0-109.969,52.777-109.969,146.263v315.6H-224.086V96.632c0-60.483-25.3-119.858-96.775-119.858-72.585,0-108.878,58.284-112.168,148.462v313.4H-576V-133.195h142.972V24.063l34.095-131.977c17.591-16.5,54.975-46.181,123.163-46.181,101.173,0,173.757,64.882,191.35,171.559l30.787-125.379c19.791-20.9,60.483-46.181,122.072-46.181,126.471,0,202.347,80.274,202.347,226.536" transform="translate(493.852 154.093)" fill="#385463"/>
  </g>
</svg>
