<svg xmlns="http://www.w3.org/2000/svg" width="95.06" height="59.428" viewBox="0 0 95.06 59.428">
  <g id="Group_107" data-name="Group 107" transform="translate(-97.976 -9441.567)">
    <rect id="Rectangle_104" data-name="Rectangle 104" width="7.919" height="11.877" rx="1.329" transform="translate(99.976 9443.567)" fill="none" stroke="#2b3d4a" stroke-width="4"/>
    <path id="Path_339" data-name="Path 339" d="M46.448,15.735v-9.9a1.986,1.986,0,0,0-1.98-1.98H40.509a1.986,1.986,0,0,0-1.98,1.98V9.8" transform="translate(116.874 9439.709)" fill="none" stroke="#2b3d4a" stroke-width="4"/>
    <path id="Path_340" data-name="Path 340" d="M27.847,9.8V5.838a1.986,1.986,0,0,0-1.98-1.98H21.908a1.986,1.986,0,0,0-1.98,1.98v9.9" transform="translate(107.762 9439.709)" fill="none" stroke="#2b3d4a" stroke-width="4"/>
    <rect id="Rectangle_105" data-name="Rectangle 105" width="7.919" height="11.877" rx="1.329" transform="translate(173.22 9465.342)" fill="none" stroke="#2b3d4a" stroke-width="4"/>
    <path id="Path_341" data-name="Path 341" d="M50.487,37.048v-1.98a1.985,1.985,0,0,1,1.98-1.979h3.959a1.985,1.985,0,0,1,1.98,1.979v7.919a1.986,1.986,0,0,1-1.98,1.98h-1.98" transform="translate(122.732 9454.028)" fill="none" stroke="#2b3d4a" stroke-width="4"/>
    <line id="Line_51" data-name="Line 51" y2="15.836" transform="translate(117.793 9441.588)" fill="none" stroke="#2b3d4a" stroke-width="4"/>
    <line id="Line_52" data-name="Line 52" y2="7.919" transform="translate(145.506 9441.588)" fill="none" stroke="#2b3d4a" stroke-width="4"/>
    <line id="Line_53" data-name="Line 53" y2="15.836" transform="translate(191.036 9463.362)" fill="none" stroke="#2b3d4a" stroke-width="4"/>
    <line id="Line_54" data-name="Line 54" y2="15.836" transform="translate(191.036 9485.138)" fill="none" stroke="#2b3d4a" stroke-width="4"/>
    <rect id="Rectangle_106" data-name="Rectangle 106" width="7.919" height="11.877" rx="1.329" transform="translate(183.117 9443.567)" fill="none" stroke="#2b3d4a" stroke-width="4"/>
    <line id="Line_55" data-name="Line 55" y2="15.836" transform="translate(173.22 9441.588)" fill="none" stroke="#2b3d4a" stroke-width="4"/>
    <rect id="Rectangle_107" data-name="Rectangle 107" width="7.919" height="11.877" rx="1.329" transform="translate(109.874 9465.342)" fill="none" stroke="#2b3d4a" stroke-width="4"/>
    <line id="Line_56" data-name="Line 56" y2="15.836" transform="translate(99.977 9463.362)" fill="none" stroke="#2b3d4a" stroke-width="4"/>
    <rect id="Rectangle_108" data-name="Rectangle 108" width="7.919" height="11.877" rx="1.329" transform="translate(99.977 9487.117)" fill="none" stroke="#2b3d4a" stroke-width="4"/>
    <path id="Path_342" data-name="Path 342" d="M46.448,39.055v1.98a1.985,1.985,0,0,1-1.98,1.979H40.509a1.985,1.985,0,0,1-1.98-1.979v-3.96" transform="translate(116.874 9455.98)" fill="none" stroke="#2b3d4a" stroke-width="4"/>
    <path id="Path_343" data-name="Path 343" d="M34.49,37.075v3.959a1.986,1.986,0,0,1-1.98,1.98H28.551a1.986,1.986,0,0,1-1.98-1.98V37.075" transform="translate(111.016 9455.98)" fill="none" stroke="#2b3d4a" stroke-width="4"/>
    <line id="Line_57" data-name="Line 57" y2="15.836" transform="translate(117.793 9485.138)" fill="none" stroke="#2b3d4a" stroke-width="4"/>
    <line id="Line_58" data-name="Line 58" y2="13.857" transform="translate(127.69 9487.117)" fill="none" stroke="#2b3d4a" stroke-width="4"/>
    <circle id="Ellipse_11" data-name="Ellipse 11" cx="17.816" cy="17.816" r="17.816" transform="translate(127.691 9453.465)" fill="none" stroke="#2b3d4a" stroke-width="4"/>
    <rect id="Rectangle_109" data-name="Rectangle 109" width="7.919" height="11.877" rx="1.329" transform="translate(145.506 9465.342)" fill="none" stroke="#2b3d4a" stroke-width="4"/>
    <line id="Line_59" data-name="Line 59" y2="15.836" transform="translate(137.588 9463.362)" fill="none" stroke="#2b3d4a" stroke-width="4"/>
    <line id="Line_60" data-name="Line 60" x2="15.836" y2="15.836" transform="translate(157.384 9483.158)" fill="none" stroke="#2b3d4a" stroke-width="4"/>
  </g>
</svg>
