<svg xmlns="http://www.w3.org/2000/svg" width="46.459" height="46.459" viewBox="0 0 46.459 46.459">
  <g id="Group_43" data-name="Group 43" transform="translate(0 0)">
    <path id="Path_201" data-name="Path 201" d="M23.229,8.1A23.229,23.229,0,1,0,46.459,31.326,23.256,23.256,0,0,0,23.229,8.1m2.113,2.68.188-.269a.383.383,0,0,1,.369-.164l.635.082A20.631,20.631,0,0,1,42.313,22l.2.448a.39.39,0,0,1-.613.453l-.078-.069a3.72,3.72,0,0,0-1.844-.706A3.821,3.821,0,0,0,36.629,23.5c-.331.4-1.441,1.675-2.127,1.675a.589.589,0,0,1-.065,0,.765.765,0,0,1-.409-.25.3.3,0,0,0,.208.048.381.381,0,0,1-.362-.215,14.108,14.108,0,0,0-8.016-7.441,11.467,11.467,0,0,0-4.747-.685,6.4,6.4,0,0,0-2.273.494,1.362,1.362,0,0,1-1.653-.433,1.2,1.2,0,0,1,.021-1.534l.071-.092a.6.6,0,0,1,.419-.213,10.185,10.185,0,0,0,7.648-4.075M2.544,26l.175-.66a20.65,20.65,0,0,1,2.232-5.1l.327-.515a.39.39,0,0,1,.5-.139l1.207.6a1.652,1.652,0,0,1,.888,1.2l.06.358a1.636,1.636,0,0,1-.887,1.742l-1.527.763a5.4,5.4,0,0,0-2.071,1.828l-.179.223a.425.425,0,0,1-.341.154.361.361,0,0,1-.2-.058A.378.378,0,0,1,2.544,26m6.64,13.173a3.253,3.253,0,0,1-.355,1.486l-.493.823a7.01,7.01,0,0,0-.754,2.078l-.03.183a.391.391,0,0,1-.282.313.412.412,0,0,1-.1.013.388.388,0,0,1-.3-.141l-.32-.385a20.9,20.9,0,0,1-4.117-8.751l-.074-.4a.389.389,0,0,1,.5-.444L3.038,34a1.7,1.7,0,0,1,.588.381L5.07,35.829a5.381,5.381,0,0,0,2.765,1.479,1.682,1.682,0,0,1,1.349,1.645ZM23.208,52.383A21.044,21.044,0,0,1,9.5,47.3a.392.392,0,0,1-.133-.339l.291-2.612A4.918,4.918,0,0,1,10.2,42.59l.226-.38a5.444,5.444,0,0,0,.928-3.042v-.217a3.876,3.876,0,0,0-2.743-3.687l-.37-.091a3.212,3.212,0,0,1-1.636-.88L5.162,32.846a3.854,3.854,0,0,0-2.632-1.13.39.39,0,0,1-.38-.39,19.293,19.293,0,0,1,.1-2.028.392.392,0,0,1,.337-.346,3.8,3.8,0,0,0,2.417-1.328l.266-.356A3.192,3.192,0,0,1,6.495,26.2l1.526-.762a3.8,3.8,0,0,0,2.059-4.044l-.06-.36A3.83,3.83,0,0,0,7.96,18.245l-.434-.217a.388.388,0,0,1-.118-.606,20.915,20.915,0,0,1,14.359-7.1h.094a.389.389,0,0,1,.228.7,8.438,8.438,0,0,1-4.566,1.669,2.777,2.777,0,0,0-1.963,1.045l-.078.1a3.334,3.334,0,0,0-.025,4.171,3.484,3.484,0,0,0,3.809,1.264l.4-.136a4.7,4.7,0,0,1,1.182-.313L21.2,18.8a9.849,9.849,0,0,1,3.944.568,11.9,11.9,0,0,1,6.751,6.283,2.915,2.915,0,0,0,2.293,1.683c1.275.157,2.624-.64,4.115-2.444a1.678,1.678,0,0,1,1.292-.614l.153.009a1.509,1.509,0,0,1,1.225.811,8.709,8.709,0,0,1,.721,1.961,2.253,2.253,0,0,0,2.082,1.706.391.391,0,0,1,.373.349,21.376,21.376,0,0,1,.115,2.219A21.08,21.08,0,0,1,23.208,52.383" transform="translate(0 -8.097)" fill="#e84752"/>
    <path id="Path_202" data-name="Path 202" d="M35.619,36.441,34.1,35.528a1.548,1.548,0,0,1-.631-.722L31.98,31.338a2.177,2.177,0,0,0-2.411-1.271l-1.681.338a1.56,1.56,0,0,1-1.108-.192l-2.8-1.683a2.161,2.161,0,0,0-1.115-.308H21.245a2.171,2.171,0,0,0-1.762.906l-2.96,4.146a2.14,2.14,0,0,0-.4,1.258v.827a2.162,2.162,0,0,0,.811,1.69L19.377,39a2.173,2.173,0,0,0,1.882.409L22,39.228a1.568,1.568,0,0,1,.389-.05,1.545,1.545,0,0,1,1.383.863l.787,1.574a1.609,1.609,0,0,1,.117.317l1.525,6.06.879,2.2a2.164,2.164,0,0,0,3.865.311l1.848-3.078a1.53,1.53,0,0,1,.234-.3l.839-.84a2.173,2.173,0,0,0,.633-1.53v-2.44a1.564,1.564,0,0,1,.343-.974L36.2,39.651a2.173,2.173,0,0,0,.442-1.734,2.139,2.139,0,0,0-1.019-1.476m-1.374,2.2-1.338,1.719a3.7,3.7,0,0,0-.558,1.957l0,2.289a.388.388,0,0,1-.113.272l-.942.961a3.725,3.725,0,0,0-.341.478l-1.462,2.431a.387.387,0,0,1-.331.187l-.031,0a.385.385,0,0,1-.328-.241l-.558-1.4-1.474-5.879a3.621,3.621,0,0,0-.28-.759L25.7,39.078a3.684,3.684,0,0,0-3.309-2.053l-.324.015a3.622,3.622,0,0,0-.595.1l-.563.139a.383.383,0,0,1-.334-.073l-2.161-1.729a.388.388,0,0,1-.145-.3v-.529a.389.389,0,0,1,.072-.225l2.782-3.892a.388.388,0,0,1,.314-.161h1.316a.38.38,0,0,1,.2.055l3.089,1.827a3.662,3.662,0,0,0,2.273.263l1.375-.279a.39.39,0,0,1,.432.226l1.55,3.562a3.672,3.672,0,0,0,1.321,1.351l1.15.692a.385.385,0,0,1,.1.572" transform="translate(-3.46 -12.385)" fill="#e84752"/>
    <path id="Path_203" data-name="Path 203" d="M48.139,46.539A.693.693,0,0,0,47.652,46a.705.705,0,0,0-.209-.032.692.692,0,0,0-.494.207l-.845.845a.7.7,0,0,0-.193.36l-.481,2.409a.705.705,0,0,0,.192.636l.412.413a.706.706,0,0,0,1.1-.135l1.235-2.059a.7.7,0,0,0,.087-.5Z" transform="translate(-9.988 -16.412)" fill="#e84752"/>
  </g>
</svg>
