<svg xmlns="http://www.w3.org/2000/svg" xmlns:xlink="http://www.w3.org/1999/xlink" width="84" height="81.442" viewBox="0 0 84 81.442">
  <defs>
    <clipPath id="clip-path">
      <rect id="Rectangle_71" data-name="Rectangle 71" width="84" height="81.442" fill="none" stroke="#385463" stroke-width="3"/>
    </clipPath>
  </defs>
  <g id="Group_79" data-name="Group 79" transform="translate(0 0)">
    <g id="Group_76" data-name="Group 76" transform="translate(0 0)">
      <g id="Group_75" data-name="Group 75" clip-path="url(#clip-path)">
        <path id="Path_269" data-name="Path 269" d="M33.231,35.729H63.324V68.745H32.371V35.729Z" transform="translate(10.22 11.28)" fill="none" stroke="#385463" stroke-linecap="round" stroke-linejoin="round" stroke-width="3"/>
        <path id="Path_270" data-name="Path 270" d="M55.9,68.745h9.039L64.708,35.73H55.9" transform="translate(17.648 11.28)" fill="none" stroke="#385463" stroke-linecap="round" stroke-linejoin="round" stroke-width="3"/>
      </g>
    </g>
    <path id="Path_271" data-name="Path 271" d="M51.223,35.729V46.535l-5.338-3.141-5.767,3.141V35.729" transform="translate(12.666 11.281)" fill="none" stroke="#385463" stroke-linecap="round" stroke-linejoin="round" stroke-width="3"/>
    <line id="Line_17" data-name="Line 17" x1="0.591" transform="translate(59.959 73.15)" fill="none" stroke="#385463" stroke-linecap="round" stroke-linejoin="round" stroke-width="3"/>
    <line id="Line_18" data-name="Line 18" x1="0.591" transform="translate(66.247 73.15)" fill="none" stroke="#385463" stroke-linecap="round" stroke-linejoin="round" stroke-width="3"/>
    <g id="Group_78" data-name="Group 78" transform="translate(0 0)">
      <g id="Group_77" data-name="Group 77" clip-path="url(#clip-path)">
        <path id="Path_272" data-name="Path 272" d="M71.5,40.393a33.338,33.338,0,0,0,.329-4.727c0-19.108-15.832-34.589-35.373-34.589S1.077,16.557,1.077,35.665c0,19.093,15.824,34.571,35.343,34.588" transform="translate(0.34 0.339)" fill="none" stroke="#385463" stroke-linecap="round" stroke-linejoin="round" stroke-width="3"/>
        <path id="Path_273" data-name="Path 273" d="M43,38.972a3.616,3.616,0,0,0-.613-.783l-3.741-3.667A3.962,3.962,0,0,0,35.859,33.4H32.928a3.965,3.965,0,0,1-2.775-1.129l-2.546-2.484a3.8,3.8,0,0,1-1.146-2.721v-5.8a3.77,3.77,0,0,1,1.146-2.713l4.873-4.764a3.947,3.947,0,0,1,2.775-1.121h3.876a4,4,0,0,0,2.784-1.129l6.321-5.968" transform="translate(8.354 1.759)" fill="none" stroke="#385463" stroke-linecap="round" stroke-linejoin="round" stroke-width="3"/>
        <path id="Path_274" data-name="Path 274" d="M14.876,6.286l9.572,9.682a3.8,3.8,0,0,1,1.153,2.72v2.931a3.8,3.8,0,0,1-1.153,2.718l-2.333,2.279a3.976,3.976,0,0,1-2.778,1.126H16.917a3.978,3.978,0,0,0-2.779,1.126l-.709.693a3.8,3.8,0,0,0-1.153,2.718v2.254a3.805,3.805,0,0,1-1.151,2.718L2.466,45" transform="translate(0.779 1.984)" fill="none" stroke="#385463" stroke-linecap="round" stroke-linejoin="round" stroke-width="3"/>
        <path id="Path_275" data-name="Path 275" d="M4.881,43.512l10.276-9.989A3.977,3.977,0,0,1,17.936,32.4h4.183A3.967,3.967,0,0,1,24.9,33.523l2.649,2.588A3.8,3.8,0,0,1,28.7,38.83V41.8a3.8,3.8,0,0,1-1.153,2.72l-1.683,1.646a3.792,3.792,0,0,0-1.153,2.718l.125,9.96" transform="translate(1.541 10.228)" fill="none" stroke="#385463" stroke-linecap="round" stroke-linejoin="round" stroke-width="3"/>
      </g>
    </g>
  </g>
</svg>
