<?xml version="1.0" encoding="UTF-8" standalone="no"?><!DOCTYPE svg PUBLIC "-//W3C//DTD SVG 1.1//EN" "http://www.w3.org/Graphics/SVG/1.1/DTD/svg11.dtd"><svg width="100%" height="100%" viewBox="0 0 1325 1325" version="1.1" xmlns="http://www.w3.org/2000/svg" xmlns:xlink="http://www.w3.org/1999/xlink" xml:space="preserve" xmlns:serif="http://www.serif.com/" style="fill-rule:evenodd;clip-rule:evenodd;"><clipPath id="_clip1"><rect x="425" y="0" width="899.604" height="662.438"/></clipPath><g clip-path="url(#_clip1)"><path id="Intersection_1" d="M1324.6,662.438l-662.437,-0.001l-237.167,-618.716c75.703,-28.999 156.1,-43.82 237.167,-43.721c363.402,0 662.437,299.035 662.437,662.438Z" style="fill:#385463;fill-rule:nonzero;"/></g><clipPath id="_clip2"><rect x="0.065" y="41.667" width="1324.87" height="1280.13"/></clipPath><g clip-path="url(#_clip2)"><path id="Subtraction_1" d="M427.956,41.586l234.542,617.772l662.437,0c0.011,44.841 -4.498,89.568 -13.458,133.504c-17.353,84.733 -51.224,165.225 -99.675,236.871c-71.887,106.492 -173.147,189.878 -291.45,240.004c-40.074,16.94 -81.728,29.87 -124.35,38.6c-88.096,17.945 -178.912,17.945 -267.008,0c-84.733,-17.353 -165.224,-51.224 -236.871,-99.675c-106.491,-71.889 -189.875,-173.15 -240,-291.454c-16.939,-40.073 -29.869,-81.725 -38.6,-124.346c-22.721,-111.406 -16.595,-226.792 17.796,-335.166c61.081,-190.428 211.413,-344.313 396.637,-416.11Z" style="fill:#e84752;fill-rule:nonzero;"/></g><g id="Ellipse_4" opacity="0.4"><circle cx="662.5" cy="662.5" r="662.5" style="fill:none;"/><circle cx="662.5" cy="662.5" r="645.833" style="fill:none;stroke:#1d2d36;stroke-width:33.33px;"/></g><circle cx="662.5" cy="662.5" r="458.333" style="fill:#f5f2d4;"/></svg>