<svg xmlns="http://www.w3.org/2000/svg" width="73.752" height="49.336" viewBox="0 0 73.752 49.336">
  <g id="Group_41" data-name="Group 41" transform="translate(1.002 15.508)">
    <g id="Group_51" data-name="Group 51" transform="translate(0 -14.456)">
      <path id="Path_204" data-name="Path 204" d="M253.855,46.864,256,48.917l.871-.5" transform="translate(-217.583 -14.991)" fill="none" stroke="#e84752" stroke-width="2"/>
      <path id="Path_205" data-name="Path 205" d="M270.309,14.465l-5.469.3L254.579,12l-1.92,1.115" transform="translate(-217.421 -10.259)" fill="none" stroke="#e84752" stroke-width="2"/>
      <path id="Path_206" data-name="Path 206" d="M257.187,46.338l10.988-7.562,3.975-6.014,3.21-1.743" transform="translate(-218.035 -12.841)" fill="none" stroke="#e84752" stroke-width="2"/>
      <path id="Path_207" data-name="Path 207" d="M275.546,26.836l2.306,1.8a19.7,19.7,0,0,0,7.747,1.743l4.085.083,1.79-1.716a2.614,2.614,0,0,0,.341-3.366l-2.868-4.132-2.914-5.017-.729-.424a26.287,26.287,0,0,0-5.4-2.361" transform="translate(-220.527 -10.455)" fill="none" stroke="#e84752" stroke-width="2"/>
      <path id="Path_208" data-name="Path 208" d="M280.586,14.57A7.773,7.773,0,0,0,276.1,9.986l-1.153.36a5.838,5.838,0,0,0-.019,1.31,17.148,17.148,0,0,0,1.9,4.095" transform="translate(-220.439 -9.986)" fill="none" stroke="#e84752" stroke-width="2"/>
      <path id="Path_209" data-name="Path 209" d="M285.736,15.206l-.156-.636A7.775,7.775,0,0,0,281.1,9.986l-.6.184" transform="translate(-221.199 -9.986)" fill="none" stroke="#e84752" stroke-width="2"/>
      <path id="Path_210" data-name="Path 210" d="M226.3,37.37a15.871,15.871,0,1,0,8.194-24.432,16.121,16.121,0,0,0-2.1.816,15.865,15.865,0,0,0-1.531.829q-.561.345-1.086.731" transform="translate(-213.842 -10.29)" fill="none" stroke="#e84752" stroke-width="2"/>
      <path id="Path_211" data-name="Path 211" d="M236.422,31.216c1.643-4.721-1.391-10.248-4.273-11.656-7.713-3.791-13.407,1.8-20.239.528-.392,6.348,4.29,12.766,11.083,15.421,4.574,1.783,8.562-.588,10.454-2.066" transform="translate(-211.886 -11.104)" fill="none" stroke="#e84752" stroke-linejoin="round" stroke-width="2"/>
      <path id="Path_212" data-name="Path 212" d="M246.35,40.341c-5.589-9.237-18.892-12.8-25.916-14.768" transform="translate(-213.047 -12.102)" fill="none" stroke="#e84752" stroke-linejoin="round" stroke-width="2"/>
      <path id="Path_213" data-name="Path 213" d="M252.139,26.521c.767,2.443-1.247,5.318-1.247,5.318s-3.274-1.088-4.04-3.531.5-7.713.5-7.713S251.372,24.078,252.139,26.521Z" transform="translate(-216.599 -11.426)" fill="none" stroke="#e84752" stroke-width="2"/>
      <path id="Path_214" data-name="Path 214" d="M234.479,50.187,229.75,62.512l-4.108-1.576,4.729-12.324" transform="translate(-213.754 -15.228)" fill="none" stroke="#e84752" stroke-linejoin="round" stroke-width="2"/>
    </g>
  </g>
</svg>
