<svg xmlns="http://www.w3.org/2000/svg" width="44.665" height="50.242" viewBox="0 0 44.665 50.242">
  <g id="Group_39" data-name="Group 39" transform="translate(1 1)">
    <path id="Path_226" data-name="Path 226" d="M471.442,38.495h0a2.279,2.279,0,0,0,1.977.728,2.287,2.287,0,0,1,2.57,2.186,2.315,2.315,0,0,0,1.051,1.842,2.318,2.318,0,0,1,.583,3.34,2.344,2.344,0,0,0-.364,2.092,2.3,2.3,0,0,1-1.675,2.934,2.279,2.279,0,0,0-1.6,1.363,2.273,2.273,0,0,1-3.153,1.165,2.272,2.272,0,0,0-2.1,0,2.264,2.264,0,0,1-3.153-1.165,2.25,2.25,0,0,0-1.613-1.363,2.3,2.3,0,0,1-1.675-2.934,2.347,2.347,0,0,0-.364-2.092,2.318,2.318,0,0,1,.583-3.34,2.315,2.315,0,0,0,1.051-1.842,2.293,2.293,0,0,1,2.57-2.186,2.29,2.29,0,0,0,1.977-.728A2.236,2.236,0,0,1,471.442,38.495Z" transform="translate(-446.873 -15.893)" fill="none" stroke="#e84752" stroke-width="2"/>
    <path id="Path_227" data-name="Path 227" d="M474.492,47.664a3.122,3.122,0,1,1-3.122-3.122A3.122,3.122,0,0,1,474.492,47.664Z" transform="translate(-448.466 -17.486)" fill="none" stroke="#e84752" stroke-width="2"/>
    <path id="Path_228" data-name="Path 228" d="M474.479,59.494v8.325L471.357,64.7l-3.121,3.122V59.494" transform="translate(-448.463 -20.991)" fill="none" stroke="#e84752" stroke-width="2"/>
    <line id="Line_7" data-name="Line 7" x2="16.65" transform="translate(14.569 12.487)" fill="none" stroke="#e84752" stroke-width="2"/>
    <line id="Line_8" data-name="Line 8" x2="8.325" transform="translate(18.731 16.649)" fill="none" stroke="#e84752" stroke-width="2"/>
    <path id="Path_229" data-name="Path 229" d="M460.1,63.338H445.531a3.117,3.117,0,0,1-3.122-3.122V58.135h6.243" transform="translate(-442.409 -20.673)" fill="none" stroke="#e84752" stroke-width="2"/>
    <path id="Path_230" data-name="Path 230" d="M488.474,16v34.34a3.118,3.118,0,0,1-3.122,3.122h-6.243" transform="translate(-451.012 -10.795)" fill="none" stroke="#e84752" stroke-width="2"/>
    <path id="Path_231" data-name="Path 231" d="M446.487,51.867a3.118,3.118,0,0,0,3.122-3.122V12.324a3.122,3.122,0,1,1,6.243,0V14.4H486.03V12.324A3.117,3.117,0,0,0,482.909,9.2H452.73" transform="translate(-443.365 -9.202)" fill="none" stroke="#e84752" stroke-width="2"/>
  </g>
</svg>
