<svg xmlns="http://www.w3.org/2000/svg" width="77.047" height="76.378" viewBox="0 0 77.047 76.378">
  <g id="Group_339" data-name="Group 339" transform="translate(-4427.9 -13437.999)" opacity="0.51">
    <path id="Path_2386" data-name="Path 2386" d="M408.477,72.6a35.687,35.687,0,0,1-7.21-2.53A35.264,35.264,0,0,1,382.36,28.9a3.727,3.727,0,0,1,.237-.634,1.6,1.6,0,0,0-2.89-1.382,7.163,7.163,0,0,0-.433,1.167,38.592,38.592,0,0,0,28.474,47.675,1.616,1.616,0,0,0,.365.042,1.6,1.6,0,0,0,.364-3.159" transform="translate(4050 13438)" fill="#385463"/>
    <path id="Path_2387" data-name="Path 2387" d="M385.625,17.777a1.585,1.585,0,0,0,.94.305,1.608,1.608,0,0,0,1.3-.66A35.475,35.475,0,0,1,411.631,3.188a1.6,1.6,0,0,0,.737-2.869,1.56,1.56,0,0,0-1.175-.3,38.7,38.7,0,0,0-25.924,15.526,1.6,1.6,0,0,0,.356,2.234" transform="translate(4050 13438)" fill="#385463"/>
    <path id="Path_2388" data-name="Path 2388" d="M433.431,3.608A38.78,38.78,0,0,0,425.082.634a1.6,1.6,0,0,0-.717,3.12,35.337,35.337,0,0,1-3.091,69.436,1.6,1.6,0,0,0-1.366,1.8,1.607,1.607,0,0,0,1.584,1.383,1.291,1.291,0,0,0,.221-.016A38.537,38.537,0,0,0,433.431,3.608" transform="translate(4050 13438)" fill="#385463"/>
    <path id="Path_2389" data-name="Path 2389" d="M406.473,39.577a12.549,12.549,0,0,1,15.57-18.894,1.445,1.445,0,0,0,2.024-1.741,1.433,1.433,0,0,0-.722-.837,15.437,15.437,0,0,0-19.152,23.247,1.445,1.445,0,0,0,2.28-1.775" transform="translate(4050 13438)" fill="#385463"/>
    <path id="Path_2390" data-name="Path 2390" d="M427.3,42.8a15.4,15.4,0,0,0,2.866-17.872,1.445,1.445,0,0,0-2.579,1.3A12.548,12.548,0,0,1,408.693,41.8a1.444,1.444,0,1,0-1.774,2.28A15.447,15.447,0,0,0,427.3,42.8" transform="translate(4050 13438)" fill="#385463"/>
    <path id="Path_2391" data-name="Path 2391" d="M425.258,23.015c.182.181.361.373.535.57a1.445,1.445,0,1,0,2.165-1.913c-.2-.23-.426-.467-.661-.7s-.469-.454-.7-.658a1.443,1.443,0,0,0-2.039.126,1.446,1.446,0,0,0,.125,2.038c.209.184.4.365.575.54" transform="translate(4050 13438)" fill="#385463"/>
    <path id="Path_2392" data-name="Path 2392" d="M425.056,64.814l.145.007a1.442,1.442,0,0,0,1.184-.616l2.421-3.473,4.2.5A1.444,1.444,0,0,0,434.5,59.21l-5.379-12,.08-.019a3.4,3.4,0,0,0,2.515-2.519l.487-2.01a.539.539,0,0,1,.2-.3l1.672-1.215a3.4,3.4,0,0,0,1.367-3.293l-.323-2.045a.541.541,0,0,1,.071-.356l1.079-1.769a3.409,3.409,0,0,0,0-3.558l-1.079-1.767a.546.546,0,0,1-.071-.358l.323-2.045a3.4,3.4,0,0,0-1.367-3.292L432.4,21.441a.534.534,0,0,1-.2-.3l-.485-2.013a3.412,3.412,0,0,0-2.519-2.518l-2.01-.486a.523.523,0,0,1-.3-.2l-1.216-1.671a3.406,3.406,0,0,0-3.3-1.365l-2.043.321a.529.529,0,0,1-.357-.071L418.2,12.058a3.4,3.4,0,0,0-3.557,0l-1.771,1.079a.531.531,0,0,1-.357.07l-2.041-.321a3.409,3.409,0,0,0-3.3,1.365l-1.214,1.671a.54.54,0,0,1-.3.2l-2.012.487a3.4,3.4,0,0,0-2.517,2.517l-.488,2.011a.522.522,0,0,1-.2.3l-1.673,1.217a3.4,3.4,0,0,0-1.363,3.293l.32,2.043a.522.522,0,0,1-.07.358l-1.078,1.768a3.4,3.4,0,0,0,0,3.559l1.078,1.77a.513.513,0,0,1,.07.353l-.321,2.044a3.406,3.406,0,0,0,1.364,3.295l1.673,1.216a.523.523,0,0,1,.2.3l.487,2.011a3.4,3.4,0,0,0,2.517,2.517l.109.027-5.377,12a1.445,1.445,0,0,0,1.489,2.023l4.2-.5,2.42,3.474a1.45,1.45,0,0,0,1.189.615l.133-.006A1.45,1.45,0,0,0,409,63.968l5.516-12.3.129.08a3.458,3.458,0,0,0,3.558,0l.156-.1,5.523,12.319a1.441,1.441,0,0,0,1.174.847m-18.68-16.371.8,1.1c.047.067.1.133.154.2l-2.556,5.7a1.445,1.445,0,0,0,2.638,1.181l2.539-5.664a3.3,3.3,0,0,0,.522-.041l1.3-.205L407.4,60.459l-1.456-2.087a1.43,1.43,0,0,0-1.178-.622,1.294,1.294,0,0,0-.177.012l-2.53.3Zm3.653-.381a.543.543,0,0,1-.512-.211L408.3,46.178a3.436,3.436,0,0,0-1.96-1.311l-2.01-.487a.526.526,0,0,1-.391-.387l-.484-2.014a3.427,3.427,0,0,0-1.314-1.959l-1.67-1.217a.513.513,0,0,1-.21-.507l.32-2.043a3.415,3.415,0,0,0-.457-2.31l-1.079-1.77a.523.523,0,0,1,0-.547l1.081-1.77a3.434,3.434,0,0,0,.455-2.31l-.32-2.045a.516.516,0,0,1,.211-.506l1.669-1.215a3.419,3.419,0,0,0,1.314-1.961l.487-2.012a.524.524,0,0,1,.387-.388l2.013-.487a3.432,3.432,0,0,0,1.959-1.31l1.218-1.672a.523.523,0,0,1,.505-.212l2.044.323a3.453,3.453,0,0,0,2.312-.458l1.765-1.079a.53.53,0,0,1,.551,0l1.771,1.08a3.42,3.42,0,0,0,2.308.458l2.043-.323a.528.528,0,0,1,.509.213l1.215,1.67a3.422,3.422,0,0,0,1.961,1.313l2.012.485a.527.527,0,0,1,.388.39l.487,2.011a3.409,3.409,0,0,0,1.311,1.959L432.375,25a.533.533,0,0,1,.211.51l-.322,2.041a3.418,3.418,0,0,0,.46,2.311l1.078,1.77a.525.525,0,0,1,0,.548l-1.078,1.767a3.41,3.41,0,0,0-.46,2.311l.322,2.044a.53.53,0,0,1-.211.509L430.7,40.021a3.421,3.421,0,0,0-1.31,1.959l-.487,2.012a.529.529,0,0,1-.389.39l-2.012.487a3.419,3.419,0,0,0-1.961,1.31l-1.214,1.671a.526.526,0,0,1-.509.212l-2.043-.322a3.413,3.413,0,0,0-2.312.458L416.7,49.277a.528.528,0,0,1-.55,0L414.382,48.2a3.437,3.437,0,0,0-1.783-.5,3.352,3.352,0,0,0-.53.041Zm12.342,2.854a3.485,3.485,0,0,0,.539.041h.02l2.537,5.664a1.445,1.445,0,1,0,2.636-1.183l-2.565-5.724c.044-.054.087-.109.126-.165l.827-1.137,4.325,9.652-2.526-.3a1.442,1.442,0,0,0-1.358.608l-1.458,2.089-4.367-9.742Z" transform="translate(4050 13438)" fill="#385463"/>
    <path id="Path_2393" data-name="Path 2393" d="M426.611,29.156h0a2.091,2.091,0,0,0-1.755-1.439l-4.586-.543-1.933-4.193a2.107,2.107,0,0,0-3.826,0l-1.934,4.193-4.586.543a2.106,2.106,0,0,0-1.182,3.638l3.391,3.135-.9,4.529a2.084,2.084,0,0,0,.826,2.113,2.117,2.117,0,0,0,2.269.135l4.028-2.255,4.03,2.255a2.122,2.122,0,0,0,1.032.272,2.115,2.115,0,0,0,2.063-2.521l-.9-4.528,3.39-3.135a2.1,2.1,0,0,0,.573-2.2m-6.955,5.1.726,3.657L417.13,36.1a1.464,1.464,0,0,0-1.412,0l-3.253,1.821.726-3.657a1.45,1.45,0,0,0-.435-1.342l-2.738-2.532,3.7-.439a1.434,1.434,0,0,0,1.142-.83l1.561-3.384,1.561,3.381a1.445,1.445,0,0,0,1.144.833l3.7.439-2.737,2.532a1.449,1.449,0,0,0-.435,1.342" transform="translate(4050 13438)" fill="#385463"/>
  </g>
</svg>
