<svg xmlns="http://www.w3.org/2000/svg" width="75.082" height="74.432" viewBox="0 0 75.082 74.432">
  <g id="Group_343" data-name="Group 343" transform="translate(-4050 -13438.973)" opacity="0.51">
    <path id="Path_2353" data-name="Path 2353" d="M29.741,71.691A34.406,34.406,0,0,1,4.378,29.175a3.5,3.5,0,0,1,.227-.609A1.578,1.578,0,1,0,1.759,27.2a6.959,6.959,0,0,0-.423,1.14A37.47,37.47,0,0,0,21.385,72.081a37.933,37.933,0,0,0,7.656,2.688,1.685,1.685,0,0,0,.342.036,1.578,1.578,0,0,0,.358-3.114" transform="translate(4050 13438)" fill="#385463"/>
    <path id="Path_2354" data-name="Path 2354" d="M7.543,18.239a1.569,1.569,0,0,0,.924.3,1.586,1.586,0,0,0,1.277-.65A34.455,34.455,0,0,1,32.816,4.108a1.572,1.572,0,0,0,.728-2.82,1.548,1.548,0,0,0-1.159-.3A37.635,37.635,0,0,0,7.19,16.042a1.577,1.577,0,0,0,.353,2.2" transform="translate(4050 13438)" fill="#385463"/>
    <path id="Path_2355" data-name="Path 2355" d="M54.153,4.49a37.511,37.511,0,0,0-8.117-2.9,1.579,1.579,0,0,0-.711,3.076,34.41,34.41,0,0,1-3,67.593,1.579,1.579,0,0,0,.217,3.142,1.531,1.531,0,0,0,.219-.017,37.568,37.568,0,0,0,11.4-70.9" transform="translate(4050 13438)" fill="#385463"/>
    <path id="Path_2356" data-name="Path 2356" d="M17.369,55.374V52.622a1.74,1.74,0,1,0-3.479,0v2.752a1.74,1.74,0,1,0,3.479,0" transform="translate(4050 13438)" fill="#385463"/>
    <path id="Path_2357" data-name="Path 2357" d="M24.654,55.36V47.335a1.74,1.74,0,1,0-3.479,0V55.36a1.74,1.74,0,1,0,3.479,0" transform="translate(4050 13438)" fill="#385463"/>
    <path id="Path_2358" data-name="Path 2358" d="M29.953,38.763a1.766,1.766,0,0,0-1.739,1.787V55.357a1.74,1.74,0,1,0,3.478,0V40.55a1.766,1.766,0,0,0-1.739-1.787" transform="translate(4050 13438)" fill="#385463"/>
    <path id="Path_2359" data-name="Path 2359" d="M37.4,45.552a1.763,1.763,0,0,0-1.739,1.783V55.36a1.74,1.74,0,1,0,3.478,0V47.335A1.763,1.763,0,0,0,37.4,45.552" transform="translate(4050 13438)" fill="#385463"/>
    <path id="Path_2360" data-name="Path 2360" d="M43.118,45.764v9.6a1.74,1.74,0,1,0,3.479,0v-9.6a1.74,1.74,0,1,0-3.479,0" transform="translate(4050 13438)" fill="#385463"/>
    <path id="Path_2361" data-name="Path 2361" d="M49.989,39.641V55.357a1.74,1.74,0,1,0,3.479,0V39.641a1.74,1.74,0,1,0-3.479,0" transform="translate(4050 13438)" fill="#385463"/>
    <path id="Path_2362" data-name="Path 2362" d="M58.849,31.311A1.767,1.767,0,0,0,57.11,33.1V55.354a1.74,1.74,0,1,0,3.478,0V33.1a1.767,1.767,0,0,0-1.739-1.79" transform="translate(4050 13438)" fill="#385463"/>
    <path id="Path_2363" data-name="Path 2363" d="M57,23.759v3.182a1.792,1.792,0,0,0,3.583,0V18.557a.753.753,0,0,0-.692-.748l-8.47-.65a1.727,1.727,0,0,0-1.295.411,1.8,1.8,0,0,0-.636,1.234,1.789,1.789,0,0,0,1.648,1.923L54.7,21,40,35.292,31.753,26.77a1.8,1.8,0,0,0-1.283-.525h0a1.8,1.8,0,0,0-1.287.522L13.815,42.6a1.791,1.791,0,0,0,2.573,2.492l14.076-14.5,8.211,8.481a1.792,1.792,0,0,0,2.54.04Z" transform="translate(4050 13438)" fill="#385463"/>
  </g>
</svg>
