<svg xmlns="http://www.w3.org/2000/svg" width="75.144" height="74.492" viewBox="0 0 75.144 74.492">
  <g id="Group_341" data-name="Group 341" transform="translate(-4239.411 -13438.941)" opacity="0.51">
    <path id="Path_2368" data-name="Path 2368" d="M219.219,71.72a34.471,34.471,0,0,1-25.424-42.579,3.286,3.286,0,0,1,.227-.608,1.579,1.579,0,0,0-2.846-1.368,6.725,6.725,0,0,0-.427,1.143,37.51,37.51,0,0,0,20.1,43.8,37.948,37.948,0,0,0,7.673,2.692,1.624,1.624,0,0,0,.344.037,1.579,1.579,0,0,0,.358-3.116" transform="translate(4050 13438)" fill="#385463"/>
    <path id="Path_2369" data-name="Path 2369" d="M196.953,18.279a1.565,1.565,0,0,0,.926.3,1.582,1.582,0,0,0,1.279-.652A34.542,34.542,0,0,1,222.294,4.084a1.577,1.577,0,0,0,.725-2.829,1.52,1.52,0,0,0-1.156-.3A37.715,37.715,0,0,0,196.6,16.076a1.577,1.577,0,0,0,.351,2.2" transform="translate(4050 13438)" fill="#385463"/>
    <path id="Path_2370" data-name="Path 2370" d="M243.582,4.462a37.842,37.842,0,0,0-8.136-2.9,1.58,1.58,0,0,0-1.892,1.183,1.584,1.584,0,0,0,1.182,1.9,34.432,34.432,0,0,1-3.009,67.651,1.58,1.58,0,0,0-1.347,1.779,1.584,1.584,0,0,0,1.563,1.364,1.27,1.27,0,0,0,.218-.016A37.589,37.589,0,0,0,243.582,4.462" transform="translate(4050 13438)" fill="#385463"/>
    <path id="Path_2371" data-name="Path 2371" d="M243.658,45.921A21.843,21.843,0,0,0,242.4,34.249a21.786,21.786,0,0,0,2.877-1.187A12.461,12.461,0,0,0,251.5,27.1a12.458,12.458,0,0,0-.056-8.616A20.872,20.872,0,0,0,249.6,14.31a1.389,1.389,0,0,0-1.476-.624,20.9,20.9,0,0,0-4.272,1.592,12.462,12.462,0,0,0-6.218,5.964,10.506,10.506,0,0,0-.683,5.056,21.794,21.794,0,0,0-2.574-2.06,31.9,31.9,0,0,0-3.454-5.263A1.371,1.371,0,0,0,228.8,20.7a28.37,28.37,0,0,1,1.981,2.772L225.6,22.467l-5.5-7.507c.154.022.3.048.451.077a12.257,12.257,0,0,1,5.539,2.863,1.3,1.3,0,0,0,1.3.257,1.46,1.46,0,0,0,.931-1.095,1.3,1.3,0,0,0-.457-1.247,14.937,14.937,0,0,0-6.791-3.468c-3.564-.7-7.7.2-11.949,2.607a30.576,30.576,0,0,0-5.333,3.811,1.374,1.374,0,0,0-.223,1.756,31.184,31.184,0,0,0,3.416,5.363,24.65,24.65,0,0,0,3.054,3.241q-.247.225-.489.461A17.862,17.862,0,0,0,215.332,58.9a1.371,1.371,0,0,0,1.03-2.54,15.105,15.105,0,0,1-2.785-1.489,9.037,9.037,0,0,0-1.365-5.821,7.812,7.812,0,0,1,.878-2.168,14.3,14.3,0,0,0,1.14-2.8,2.653,2.653,0,0,0-.949-2.876,6.04,6.04,0,0,0-1.974-.891,5.322,5.322,0,0,1-.754-.261,12.2,12.2,0,0,1-1.111-1.868,16.921,16.921,0,0,0-1.192-2.043,15.246,15.246,0,0,1,4.024-5.33,13.9,13.9,0,0,0,4.81,1.991c-2.073,2.108-2.572,4.584-1.4,6.995,1.626,3.339,4.935,2.812,7.6,2.389.377-.061.768-.123,1.157-.175a18.019,18.019,0,0,1,.257,4.072c-.017,2.536-.034,4.931,1,6.28a3.25,3.25,0,0,0,4.086.768c2.506-1.073,5.006-4.225,4.6-6.838-.294-1.886-.488-3.133-.079-4.029a6.2,6.2,0,0,1,2.658-2.358,15.282,15.282,0,0,1,.2,2.608,15.013,15.013,0,0,1-4.544,10.639,15.28,15.28,0,0,1-12.245,4.22,1.323,1.323,0,0,0-.981.273,1.382,1.382,0,0,0-.5.943A1.327,1.327,0,0,0,220.07,60.1a18.044,18.044,0,0,0,14.461-4.984,17.848,17.848,0,0,0-2.01-27.219c.373-.281.734-.567,1.074-.85a19.222,19.222,0,0,1,7.359,18.426,19.167,19.167,0,0,1-37.822-6.245A1.328,1.328,0,0,0,202,37.683a1.375,1.375,0,0,0-1.036.228,1.326,1.326,0,0,0-.534.872,21.9,21.9,0,0,0,18.046,25.182,22.231,22.231,0,0,0,3.614.3,21.925,21.925,0,0,0,21.571-18.342m-3.5-23.613c.044-.105.093-.211.146-.318l1.847,4.472-1.5,3.572c-.134-.348-.256-.7-.364-1.037-.578-1.828-1.071-4.472-.134-6.688l-.115-.05Zm3.919,8.288q-.409.205-.853.4l1.576-3.767,4.387-1.809a6.079,6.079,0,0,1-.22.612c-.937,2.217-3.176,3.706-4.89,4.564m-.435-7.7-1.377-3.336a13.61,13.61,0,0,1,2.783-1.813c.3-.151.61-.3.929-.434Zm2.657.75,2.2-5.259c.123.323.235.645.334.96a13.877,13.877,0,0,1,.619,3Zm-36.45,26.786h0a6.461,6.461,0,0,1,.826,1.888,15.237,15.237,0,0,1-3.528-12.6,8.549,8.549,0,0,0,1.641,2.434,4.756,4.756,0,0,0,1.709.781,4.971,4.971,0,0,1,1.082.413c0,.02-.009.048-.018.086a12.618,12.618,0,0,1-.944,2.252c-.809,1.659-1.645,3.373-.769,4.743m7.07-26.864,4.514.88L214.955,29.2a14.5,14.5,0,0,1-2.965-2.014Zm.675-2.661-3.761-5.127a15.755,15.755,0,0,1,2.9-.77l4.9,6.684Zm-9.723-1.9a28.162,28.162,0,0,1,3.4-2.1l2.36,3.219Zm10.328,11.2,6.9-5.053,5.143,1c-2.614,1.864-7.4,4.657-12.039,4.05M231.676,46.73c.147.945-1.154,3.1-2.973,3.884-.427.183-.731.214-.832.08-.463-.6-.445-3.1-.434-4.592.019-2.746.035-5.117-1.248-6.26a2.357,2.357,0,0,0-1.582-.593,2.711,2.711,0,0,0-.334.021c-.468.059-.954.136-1.424.211-2.816.447-4.031.493-4.7-.88-1.222-2.515,1.393-4.461,2.574-5.182a5.278,5.278,0,0,0,.7-.513,22.16,22.16,0,0,0,8.672-3.342,15.221,15.221,0,0,1,6.147,7.6c-2.493,1.379-3.78,2.533-4.434,3.965-.747,1.643-.489,3.3-.132,5.6l.124-.017ZM213.262,22.853l-3.24,2.375a27.572,27.572,0,0,1-2.625-3.519Z" transform="translate(4050 13438)" fill="#385463"/>
  </g>
</svg>
