<svg xmlns="http://www.w3.org/2000/svg" xmlns:xlink="http://www.w3.org/1999/xlink" width="75.247" height="86" viewBox="0 0 75.247 86">
  <defs>
    <clipPath id="clip-path">
      <rect id="Rectangle_103" data-name="Rectangle 103" width="75.247" height="86" fill="none" stroke="#707070" stroke-width="4"/>
    </clipPath>
  </defs>
  <g id="Group_105" data-name="Group 105" transform="translate(0 0)">
    <g id="Group_104" data-name="Group 104" transform="translate(0 0)" clip-path="url(#clip-path)">
      <path id="Path_333" data-name="Path 333" d="M26.29,38.65v8.958c0,2.9-2.508,4.247-5.411,5L10.146,55.421C5.309,56.674,1.3,62,1.206,65.526v1.792" transform="translate(0.583 18.682)" fill="none" stroke="#2b3d4a" stroke-width="4"/>
      <path id="Path_334" data-name="Path 334" d="M32.611,38.65v8.958c0,2.9,2.508,4.247,5.411,5l10.732,2.814c4.837,1.253,8.851,4.784,8.94,8.313v3.584" transform="translate(15.763 18.682)" fill="none" stroke="#2b3d4a" stroke-width="4"/>
      <path id="Path_335" data-name="Path 335" d="M49.119,20.532V38.45c0,6.951-9.173,9.962-10.75,10.75A16.738,16.738,0,0,1,31.2,50.992,16.73,16.73,0,0,1,24.035,49.2c-1.577-.788-10.751-3.8-10.751-10.75V20.532" transform="translate(6.421 9.924)" fill="none" stroke="#2b3d4a" stroke-width="4"/>
      <path id="Path_336" data-name="Path 336" d="M22.948,15.54V1.206h7.166V15.54" transform="translate(11.092 0.583)" fill="none" stroke="#2b3d4a" stroke-linejoin="round" stroke-width="4"/>
      <line id="Line_49" data-name="Line 49" x1="50.169" transform="translate(12.538 30.456)" fill="none" stroke="#2b3d4a" stroke-linejoin="round" stroke-width="4"/>
      <path id="Path_337" data-name="Path 337" d="M23.995,9.58V2.414c-7.616,2.9-10.75,7.095-10.75,16.124V20.33L9.661,22.122v3.584" transform="translate(4.67 1.167)" fill="none" stroke="#2b3d4a" stroke-linejoin="round" stroke-width="4"/>
      <path id="Path_338" data-name="Path 338" d="M31.4,9.58V2.414c7.614,2.9,10.75,7.095,10.75,16.124V20.33l3.584,1.792v3.584" transform="translate(15.179 1.167)" fill="none" stroke="#2b3d4a" stroke-linejoin="round" stroke-width="4"/>
    </g>
  </g>
</svg>
