<svg xmlns="http://www.w3.org/2000/svg" width="255" height="339" viewBox="0 0 255 339">
  <g id="Group_260" data-name="Group 260" transform="translate(-890 -3372)">
    <g id="Group_209" data-name="Group 209" transform="translate(982.791 3500.367)">
      <g id="Subtraction_2" data-name="Subtraction 2" transform="translate(3.209 7.633)" fill="#e84752">
        <path d="M 7.5 14.5 C 3.64018988609314 14.5 0.5 11.35980987548828 0.5 7.5 C 0.5 3.64018988609314 3.64018988609314 0.5 7.5 0.5 C 11.35980987548828 0.5 14.5 3.64018988609314 14.5 7.5 C 14.5 11.35980987548828 11.35980987548828 14.5 7.5 14.5 Z" stroke="none"/>
        <path d="M 7.5 1 C 3.915889739990234 1 1 3.915889739990234 1 7.5 C 1 11.08411026000977 3.915889739990234 14 7.5 14 C 11.08411026000977 14 14 11.08411026000977 14 7.5 C 14 3.915889739990234 11.08411026000977 1 7.5 1 M 7.5 0 C 11.64213943481445 0 15 3.35785961151123 15 7.5 C 15 11.64212989807129 11.64213943481445 15 7.5 15 C 3.35785961151123 15 0 11.64212989807129 0 7.5 C 0 3.35785961151123 3.35785961151123 0 7.5 0 Z" stroke="none" fill="#fffef0"/>
      </g>
    </g>
    <g id="Group_210" data-name="Group 210" transform="translate(1022.79 3490.131)">
      <g id="Subtraction_2-2" data-name="Subtraction 2" transform="translate(-12.79 37.869)" fill="#e84752">
        <path d="M 7.5 14.5 C 3.64018988609314 14.5 0.5 11.35980987548828 0.5 7.5 C 0.5 3.64018988609314 3.64018988609314 0.5 7.5 0.5 C 11.35980987548828 0.5 14.5 3.64018988609314 14.5 7.5 C 14.5 11.35980987548828 11.35980987548828 14.5 7.5 14.5 Z" stroke="none"/>
        <path d="M 7.5 1 C 3.915889739990234 1 1 3.915889739990234 1 7.5 C 1 11.08411026000977 3.915889739990234 14 7.5 14 C 11.08411026000977 14 14 11.08411026000977 14 7.5 C 14 3.915889739990234 11.08411026000977 1 7.5 1 M 7.5 0 C 11.64213943481445 0 15 3.35785961151123 15 7.5 C 15 11.64212989807129 11.64213943481445 15 7.5 15 C 3.35785961151123 15 0 11.64212989807129 0 7.5 C 0 3.35785961151123 3.35785961151123 0 7.5 0 Z" stroke="none" fill="#fffef0"/>
      </g>
    </g>
    <g id="Group_211" data-name="Group 211" transform="translate(1036.965 3513.25)">
      <g id="Subtraction_2-3" data-name="Subtraction 2" transform="translate(0.034 -0.25)" fill="#e84752">
        <path d="M 7.5 14.5 C 3.64018988609314 14.5 0.5 11.35980987548828 0.5 7.5 C 0.5 3.64018988609314 3.64018988609314 0.5 7.5 0.5 C 11.35980987548828 0.5 14.5 3.64018988609314 14.5 7.5 C 14.5 11.35980987548828 11.35980987548828 14.5 7.5 14.5 Z" stroke="none"/>
        <path d="M 7.5 1 C 3.915889739990234 1 1 3.915889739990234 1 7.5 C 1 11.08411026000977 3.915889739990234 14 7.5 14 C 11.08411026000977 14 14 11.08411026000977 14 7.5 C 14 3.915889739990234 11.08411026000977 1 7.5 1 M 7.5 0 C 11.64213943481445 0 15 3.35785961151123 15 7.5 C 15 11.64212989807129 11.64213943481445 15 7.5 15 C 3.35785961151123 15 0 11.64212989807129 0 7.5 C 0 3.35785961151123 3.35785961151123 0 7.5 0 Z" stroke="none" fill="#fffef0"/>
      </g>
    </g>
    <g id="Group_212" data-name="Group 212" transform="translate(1082.965 3503.66)">
      <g id="Subtraction_2-4" data-name="Subtraction 2" transform="translate(0.035 0.34)" fill="#e84752">
        <path d="M 7.5 14.5 C 3.64018988609314 14.5 0.5 11.35980987548828 0.5 7.5 C 0.5 3.64018988609314 3.64018988609314 0.5 7.5 0.5 C 11.35980987548828 0.5 14.5 3.64018988609314 14.5 7.5 C 14.5 11.35980987548828 11.35980987548828 14.5 7.5 14.5 Z" stroke="none"/>
        <path d="M 7.5 1 C 3.915889739990234 1 1 3.915889739990234 1 7.5 C 1 11.08411026000977 3.915889739990234 14 7.5 14 C 11.08411026000977 14 14 11.08411026000977 14 7.5 C 14 3.915889739990234 11.08411026000977 1 7.5 1 M 7.5 0 C 11.64213943481445 0 15 3.35785961151123 15 7.5 C 15 11.64212989807129 11.64213943481445 15 7.5 15 C 3.35785961151123 15 0 11.64212989807129 0 7.5 C 0 3.35785961151123 3.35785961151123 0 7.5 0 Z" stroke="none" fill="#fffef0"/>
      </g>
    </g>
    <g id="Group_213" data-name="Group 213" transform="translate(1082.965 3529.659)">
      <g id="Subtraction_2-5" data-name="Subtraction 2" transform="translate(0.035 0.341)" fill="#e84752">
        <path d="M 7.5 14.5 C 3.64018988609314 14.5 0.5 11.35980987548828 0.5 7.5 C 0.5 3.64018988609314 3.64018988609314 0.5 7.5 0.5 C 11.35980987548828 0.5 14.5 3.64018988609314 14.5 7.5 C 14.5 11.35980987548828 11.35980987548828 14.5 7.5 14.5 Z" stroke="none"/>
        <path d="M 7.5 1 C 3.915889739990234 1 1 3.915889739990234 1 7.5 C 1 11.08411026000977 3.915889739990234 14 7.5 14 C 11.08411026000977 14 14 11.08411026000977 14 7.5 C 14 3.915889739990234 11.08411026000977 1 7.5 1 M 7.5 0 C 11.64213943481445 0 15 3.35785961151123 15 7.5 C 15 11.64212989807129 11.64213943481445 15 7.5 15 C 3.35785961151123 15 0 11.64212989807129 0 7.5 C 0 3.35785961151123 3.35785961151123 0 7.5 0 Z" stroke="none" fill="#fffef0"/>
      </g>
    </g>
    <g id="Group_214" data-name="Group 214" transform="translate(1089.082 3548.012)">
      <g id="Subtraction_2-6" data-name="Subtraction 2" transform="translate(-0.082 -0.011)" fill="#e84752">
        <path d="M 7.5 14.5 C 3.64018988609314 14.5 0.5 11.35980987548828 0.5 7.5 C 0.5 3.64018988609314 3.64018988609314 0.5 7.5 0.5 C 11.35980987548828 0.5 14.5 3.64018988609314 14.5 7.5 C 14.5 11.35980987548828 11.35980987548828 14.5 7.5 14.5 Z" stroke="none"/>
        <path d="M 7.5 1 C 3.915889739990234 1 1 3.915889739990234 1 7.5 C 1 11.08411026000977 3.915889739990234 14 7.5 14 C 11.08411026000977 14 14 11.08411026000977 14 7.5 C 14 3.915889739990234 11.08411026000977 1 7.5 1 M 7.5 0 C 11.64213943481445 0 15 3.35785961151123 15 7.5 C 15 11.64212989807129 11.64213943481445 15 7.5 15 C 3.35785961151123 15 0 11.64212989807129 0 7.5 C 0 3.35785961151123 3.35785961151123 0 7.5 0 Z" stroke="none" fill="#fffef0"/>
      </g>
    </g>
    <g id="Group_215" data-name="Group 215" transform="translate(1110.435 3542.835)">
      <g id="Subtraction_2-7" data-name="Subtraction 2" transform="translate(-0.435 0.165)" fill="#e84752">
        <path d="M 7.5 14.5 C 3.64018988609314 14.5 0.5 11.35980987548828 0.5 7.5 C 0.5 3.64018988609314 3.64018988609314 0.5 7.5 0.5 C 11.35980987548828 0.5 14.5 3.64018988609314 14.5 7.5 C 14.5 11.35980987548828 11.35980987548828 14.5 7.5 14.5 Z" stroke="none"/>
        <path d="M 7.5 1 C 3.915889739990234 1 1 3.915889739990234 1 7.5 C 1 11.08411026000977 3.915889739990234 14 7.5 14 C 11.08411026000977 14 14 11.08411026000977 14 7.5 C 14 3.915889739990234 11.08411026000977 1 7.5 1 M 7.5 0 C 11.64213943481445 0 15 3.35785961151123 15 7.5 C 15 11.64212989807129 11.64213943481445 15 7.5 15 C 3.35785961151123 15 0 11.64212989807129 0 7.5 C 0 3.35785961151123 3.35785961151123 0 7.5 0 Z" stroke="none" fill="#fffef0"/>
      </g>
    </g>
    <g id="Group_216" data-name="Group 216" transform="translate(1104.435 3556.129)">
      <g id="Subtraction_2-8" data-name="Subtraction 2" transform="translate(-0.435 -0.129)" fill="#e84752">
        <path d="M 7.5 14.5 C 3.64018988609314 14.5 0.5 11.35980987548828 0.5 7.5 C 0.5 3.64018988609314 3.64018988609314 0.5 7.5 0.5 C 11.35980987548828 0.5 14.5 3.64018988609314 14.5 7.5 C 14.5 11.35980987548828 11.35980987548828 14.5 7.5 14.5 Z" stroke="none"/>
        <path d="M 7.5 1 C 3.915889739990234 1 1 3.915889739990234 1 7.5 C 1 11.08411026000977 3.915889739990234 14 7.5 14 C 11.08411026000977 14 14 11.08411026000977 14 7.5 C 14 3.915889739990234 11.08411026000977 1 7.5 1 M 7.5 0 C 11.64213943481445 0 15 3.35785961151123 15 7.5 C 15 11.64212989807129 11.64213943481445 15 7.5 15 C 3.35785961151123 15 0 11.64212989807129 0 7.5 C 0 3.35785961151123 3.35785961151123 0 7.5 0 Z" stroke="none" fill="#fffef0"/>
      </g>
    </g>
    <g id="Group_297" data-name="Group 297" transform="translate(1088.435 3563.129)">
      <g id="Subtraction_2-9" data-name="Subtraction 2" transform="translate(-0.435 -0.129)" fill="#e84752">
        <path d="M 7.5 14.5 C 3.64018988609314 14.5 0.5 11.35980987548828 0.5 7.5 C 0.5 3.64018988609314 3.64018988609314 0.5 7.5 0.5 C 11.35980987548828 0.5 14.5 3.64018988609314 14.5 7.5 C 14.5 11.35980987548828 11.35980987548828 14.5 7.5 14.5 Z" stroke="none"/>
        <path d="M 7.5 1 C 3.915889739990234 1 1 3.915889739990234 1 7.5 C 1 11.08411026000977 3.915889739990234 14 7.5 14 C 11.08411026000977 14 14 11.08411026000977 14 7.5 C 14 3.915889739990234 11.08411026000977 1 7.5 1 M 7.5 0 C 11.64213943481445 0 15 3.35785961151123 15 7.5 C 15 11.64212989807129 11.64213943481445 15 7.5 15 C 3.35785961151123 15 0 11.64212989807129 0 7.5 C 0 3.35785961151123 3.35785961151123 0 7.5 0 Z" stroke="none" fill="#fffef0"/>
      </g>
    </g>
    <g id="Group_217" data-name="Group 217" transform="translate(1130.375 3508.248)">
      <g id="Subtraction_2-10" data-name="Subtraction 2" transform="translate(-0.375 -0.248)" fill="#e84752">
        <path d="M 7.5 14.5 C 3.64018988609314 14.5 0.5 11.35980987548828 0.5 7.5 C 0.5 3.64018988609314 3.64018988609314 0.5 7.5 0.5 C 11.35980987548828 0.5 14.5 3.64018988609314 14.5 7.5 C 14.5 11.35980987548828 11.35980987548828 14.5 7.5 14.5 Z" stroke="none"/>
        <path d="M 7.5 1 C 3.915889739990234 1 1 3.915889739990234 1 7.5 C 1 11.08411026000977 3.915889739990234 14 7.5 14 C 11.08411026000977 14 14 11.08411026000977 14 7.5 C 14 3.915889739990234 11.08411026000977 1 7.5 1 M 7.5 0 C 11.64213943481445 0 15 3.35785961151123 15 7.5 C 15 11.64212989807129 11.64213943481445 15 7.5 15 C 3.35785961151123 15 0 11.64212989807129 0 7.5 C 0 3.35785961151123 3.35785961151123 0 7.5 0 Z" stroke="none" fill="#fffef0"/>
      </g>
    </g>
    <g id="Group_218" data-name="Group 218" transform="translate(1026.378 3613.774)">
      <g id="Subtraction_2-11" data-name="Subtraction 2" transform="translate(-0.378 0.226)" fill="#e84752">
        <path d="M 7.5 14.5 C 3.64018988609314 14.5 0.5 11.35980987548828 0.5 7.5 C 0.5 3.64018988609314 3.64018988609314 0.5 7.5 0.5 C 11.35980987548828 0.5 14.5 3.64018988609314 14.5 7.5 C 14.5 11.35980987548828 11.35980987548828 14.5 7.5 14.5 Z" stroke="none"/>
        <path d="M 7.5 1 C 3.915889739990234 1 1 3.915889739990234 1 7.5 C 1 11.08411026000977 3.915889739990234 14 7.5 14 C 11.08411026000977 14 14 11.08411026000977 14 7.5 C 14 3.915889739990234 11.08411026000977 1 7.5 1 M 7.5 0 C 11.64213943481445 0 15 3.35785961151123 15 7.5 C 15 11.64212989807129 11.64213943481445 15 7.5 15 C 3.35785961151123 15 0 11.64212989807129 0 7.5 C 0 3.35785961151123 3.35785961151123 0 7.5 0 Z" stroke="none" fill="#fffef0"/>
      </g>
    </g>
    <g id="Group_329" data-name="Group 329" transform="translate(1027.378 3592.774)">
      <g id="Subtraction_2-12" data-name="Subtraction 2" transform="translate(-0.378 0.226)" fill="#e84752">
        <path d="M 7.5 14.5 C 3.64018988609314 14.5 0.5 11.35980987548828 0.5 7.5 C 0.5 3.64018988609314 3.64018988609314 0.5 7.5 0.5 C 11.35980987548828 0.5 14.5 3.64018988609314 14.5 7.5 C 14.5 11.35980987548828 11.35980987548828 14.5 7.5 14.5 Z" stroke="none"/>
        <path d="M 7.5 1 C 3.915889739990234 1 1 3.915889739990234 1 7.5 C 1 11.08411026000977 3.915889739990234 14 7.5 14 C 11.08411026000977 14 14 11.08411026000977 14 7.5 C 14 3.915889739990234 11.08411026000977 1 7.5 1 M 7.5 0 C 11.64213943481445 0 15 3.35785961151123 15 7.5 C 15 11.64212989807129 11.64213943481445 15 7.5 15 C 3.35785961151123 15 0 11.64212989807129 0 7.5 C 0 3.35785961151123 3.35785961151123 0 7.5 0 Z" stroke="none" fill="#fffef0"/>
      </g>
    </g>
    <g id="Group_219" data-name="Group 219" transform="translate(994.85 3589.246)">
      <g id="Subtraction_2-13" data-name="Subtraction 2" transform="translate(0.15 -0.246)" fill="#e84752">
        <path d="M 7.5 14.5 C 3.64018988609314 14.5 0.5 11.35980987548828 0.5 7.5 C 0.5 3.64018988609314 3.64018988609314 0.5 7.5 0.5 C 11.35980987548828 0.5 14.5 3.64018988609314 14.5 7.5 C 14.5 11.35980987548828 11.35980987548828 14.5 7.5 14.5 Z" stroke="none"/>
        <path d="M 7.5 1 C 3.915889739990234 1 1 3.915889739990234 1 7.5 C 1 11.08411026000977 3.915889739990234 14 7.5 14 C 11.08411026000977 14 14 11.08411026000977 14 7.5 C 14 3.915889739990234 11.08411026000977 1 7.5 1 M 7.5 0 C 11.64213943481445 0 15 3.35785961151123 15 7.5 C 15 11.64212989807129 11.64213943481445 15 7.5 15 C 3.35785961151123 15 0 11.64212989807129 0 7.5 C 0 3.35785961151123 3.35785961151123 0 7.5 0 Z" stroke="none" fill="#fffef0"/>
      </g>
    </g>
    <g id="Group_330" data-name="Group 330" transform="translate(1009.85 3578.246)">
      <g id="Subtraction_2-14" data-name="Subtraction 2" transform="translate(0.15 -0.246)" fill="#e84752">
        <path d="M 7.5 14.5 C 3.64018988609314 14.5 0.5 11.35980987548828 0.5 7.5 C 0.5 3.64018988609314 3.64018988609314 0.5 7.5 0.5 C 11.35980987548828 0.5 14.5 3.64018988609314 14.5 7.5 C 14.5 11.35980987548828 11.35980987548828 14.5 7.5 14.5 Z" stroke="none"/>
        <path d="M 7.5 1 C 3.915889739990234 1 1 3.915889739990234 1 7.5 C 1 11.08411026000977 3.915889739990234 14 7.5 14 C 11.08411026000977 14 14 11.08411026000977 14 7.5 C 14 3.915889739990234 11.08411026000977 1 7.5 1 M 7.5 0 C 11.64213943481445 0 15 3.35785961151123 15 7.5 C 15 11.64212989807129 11.64213943481445 15 7.5 15 C 3.35785961151123 15 0 11.64212989807129 0 7.5 C 0 3.35785961151123 3.35785961151123 0 7.5 0 Z" stroke="none" fill="#fffef0"/>
      </g>
    </g>
    <g id="Group_302" data-name="Group 302" transform="translate(1010.85 3599.246)">
      <g id="Subtraction_2-15" data-name="Subtraction 2" transform="translate(0.15 -0.246)" fill="#e84752">
        <path d="M 7.5 14.5 C 3.64018988609314 14.5 0.5 11.35980987548828 0.5 7.5 C 0.5 3.64018988609314 3.64018988609314 0.5 7.5 0.5 C 11.35980987548828 0.5 14.5 3.64018988609314 14.5 7.5 C 14.5 11.35980987548828 11.35980987548828 14.5 7.5 14.5 Z" stroke="none"/>
        <path d="M 7.5 1 C 3.915889739990234 1 1 3.915889739990234 1 7.5 C 1 11.08411026000977 3.915889739990234 14 7.5 14 C 11.08411026000977 14 14 11.08411026000977 14 7.5 C 14 3.915889739990234 11.08411026000977 1 7.5 1 M 7.5 0 C 11.64213943481445 0 15 3.35785961151123 15 7.5 C 15 11.64212989807129 11.64213943481445 15 7.5 15 C 3.35785961151123 15 0 11.64212989807129 0 7.5 C 0 3.35785961151123 3.35785961151123 0 7.5 0 Z" stroke="none" fill="#fffef0"/>
      </g>
    </g>
    <g id="Group_221" data-name="Group 221" transform="translate(1035.554 3684.654)">
      <g id="Subtraction_2-16" data-name="Subtraction 2" transform="translate(-5.554 1.345)" fill="#e84752">
        <path d="M 7.5 14.5 C 3.64018988609314 14.5 0.5 11.35980987548828 0.5 7.5 C 0.5 3.64018988609314 3.64018988609314 0.5 7.5 0.5 C 11.35980987548828 0.5 14.5 3.64018988609314 14.5 7.5 C 14.5 11.35980987548828 11.35980987548828 14.5 7.5 14.5 Z" stroke="none"/>
        <path d="M 7.5 1 C 3.915889739990234 1 1 3.915889739990234 1 7.5 C 1 11.08411026000977 3.915889739990234 14 7.5 14 C 11.08411026000977 14 14 11.08411026000977 14 7.5 C 14 3.915889739990234 11.08411026000977 1 7.5 1 M 7.5 0 C 11.64213943481445 0 15 3.35785961151123 15 7.5 C 15 11.64212989807129 11.64213943481445 15 7.5 15 C 3.35785961151123 15 0 11.64212989807129 0 7.5 C 0 3.35785961151123 3.35785961151123 0 7.5 0 Z" stroke="none" fill="#fffef0"/>
      </g>
      <g id="Subtraction_4" data-name="Subtraction 4" transform="translate(-7.554 -9.655)" fill="#e84752">
        <path d="M 7.5 14.5 C 3.64018988609314 14.5 0.5 11.35980987548828 0.5 7.5 C 0.5 3.64018988609314 3.64018988609314 0.5 7.5 0.5 C 11.35980987548828 0.5 14.5 3.64018988609314 14.5 7.5 C 14.5 11.35980987548828 11.35980987548828 14.5 7.5 14.5 Z" stroke="none"/>
        <path d="M 7.5 1 C 3.915889739990234 1 1 3.915889739990234 1 7.5 C 1 11.08411026000977 3.915889739990234 14 7.5 14 C 11.08411026000977 14 14 11.08411026000977 14 7.5 C 14 3.915889739990234 11.08411026000977 1 7.5 1 M 7.5 0 C 11.64213943481445 0 15 3.35785961151123 15 7.5 C 15 11.64212989807129 11.64213943481445 15 7.5 15 C 3.35785961151123 15 0 11.64212989807129 0 7.5 C 0 3.35785961151123 3.35785961151123 0 7.5 0 Z" stroke="none" fill="#fffef0"/>
      </g>
      <g id="Subtraction_3" data-name="Subtraction 3" transform="translate(3.446 -4.655)" fill="#e84752">
        <path d="M 7.5 14.5 C 3.64018988609314 14.5 0.5 11.35980987548828 0.5 7.5 C 0.5 3.64018988609314 3.64018988609314 0.5 7.5 0.5 C 11.35980987548828 0.5 14.5 3.64018988609314 14.5 7.5 C 14.5 11.35980987548828 11.35980987548828 14.5 7.5 14.5 Z" stroke="none"/>
        <path d="M 7.5 1 C 3.915889739990234 1 1 3.915889739990234 1 7.5 C 1 11.08411026000977 3.915889739990234 14 7.5 14 C 11.08411026000977 14 14 11.08411026000977 14 7.5 C 14 3.915889739990234 11.08411026000977 1 7.5 1 M 7.5 0 C 11.64213943481445 0 15 3.35785961151123 15 7.5 C 15 11.64212989807129 11.64213943481445 15 7.5 15 C 3.35785961151123 15 0 11.64212989807129 0 7.5 C 0 3.35785961151123 3.35785961151123 0 7.5 0 Z" stroke="none" fill="#fffef0"/>
      </g>
    </g>
    <g id="Group_227" data-name="Group 227" transform="translate(911.676 3388.958)">
      <g id="Subtraction_2-17" data-name="Subtraction 2" transform="translate(0.324 0.042)" fill="#e84752">
        <path d="M 7.5 14.5 C 3.64018988609314 14.5 0.5 11.35980987548828 0.5 7.5 C 0.5 3.64018988609314 3.64018988609314 0.5 7.5 0.5 C 11.35980987548828 0.5 14.5 3.64018988609314 14.5 7.5 C 14.5 11.35980987548828 11.35980987548828 14.5 7.5 14.5 Z" stroke="none"/>
        <path d="M 7.5 1 C 3.915889739990234 1 1 3.915889739990234 1 7.5 C 1 11.08411026000977 3.915889739990234 14 7.5 14 C 11.08411026000977 14 14 11.08411026000977 14 7.5 C 14 3.915889739990234 11.08411026000977 1 7.5 1 M 7.5 0 C 11.64213943481445 0 15 3.35785961151123 15 7.5 C 15 11.64212989807129 11.64213943481445 15 7.5 15 C 3.35785961151123 15 0 11.64212989807129 0 7.5 C 0 3.35785961151123 3.35785961151123 0 7.5 0 Z" stroke="none" fill="#fffef0"/>
      </g>
    </g>
    <g id="Group_228" data-name="Group 228" transform="translate(890.265 3372.135)">
      <g id="Subtraction_2-18" data-name="Subtraction 2" transform="translate(-0.265 -0.135)" fill="#e84752">
        <path d="M 7.5 14.5 C 3.64018988609314 14.5 0.5 11.35980987548828 0.5 7.5 C 0.5 3.64018988609314 3.64018988609314 0.5 7.5 0.5 C 11.35980987548828 0.5 14.5 3.64018988609314 14.5 7.5 C 14.5 11.35980987548828 11.35980987548828 14.5 7.5 14.5 Z" stroke="none"/>
        <path d="M 7.5 1 C 3.915889739990234 1 1 3.915889739990234 1 7.5 C 1 11.08411026000977 3.915889739990234 14 7.5 14 C 11.08411026000977 14 14 11.08411026000977 14 7.5 C 14 3.915889739990234 11.08411026000977 1 7.5 1 M 7.5 0 C 11.64213943481445 0 15 3.35785961151123 15 7.5 C 15 11.64212989807129 11.64213943481445 15 7.5 15 C 3.35785961151123 15 0 11.64212989807129 0 7.5 C 0 3.35785961151123 3.35785961151123 0 7.5 0 Z" stroke="none" fill="#fffef0"/>
      </g>
    </g>
    <g id="Group_226" data-name="Group 226" transform="translate(995.791 3696.36)">
      <g id="Subtraction_2-19" data-name="Subtraction 2" transform="translate(0.209 -0.36)" fill="#e84752">
        <path d="M 7.5 14.5 C 3.64018988609314 14.5 0.5 11.35980987548828 0.5 7.5 C 0.5 3.64018988609314 3.64018988609314 0.5 7.5 0.5 C 11.35980987548828 0.5 14.5 3.64018988609314 14.5 7.5 C 14.5 11.35980987548828 11.35980987548828 14.5 7.5 14.5 Z" stroke="none"/>
        <path d="M 7.5 1 C 3.915889739990234 1 1 3.915889739990234 1 7.5 C 1 11.08411026000977 3.915889739990234 14 7.5 14 C 11.08411026000977 14 14 11.08411026000977 14 7.5 C 14 3.915889739990234 11.08411026000977 1 7.5 1 M 7.5 0 C 11.64213943481445 0 15 3.35785961151123 15 7.5 C 15 11.64212989807129 11.64213943481445 15 7.5 15 C 3.35785961151123 15 0 11.64212989807129 0 7.5 C 0 3.35785961151123 3.35785961151123 0 7.5 0 Z" stroke="none" fill="#fffef0"/>
      </g>
    </g>
    <g id="Group_222" data-name="Group 222" transform="translate(1008.026 3692.36)">
      <g id="Subtraction_2-20" data-name="Subtraction 2" transform="translate(-0.026 -0.36)" fill="#e84752">
        <path d="M 7.5 14.5 C 3.64018988609314 14.5 0.5 11.35980987548828 0.5 7.5 C 0.5 3.64018988609314 3.64018988609314 0.5 7.5 0.5 C 11.35980987548828 0.5 14.5 3.64018988609314 14.5 7.5 C 14.5 11.35980987548828 11.35980987548828 14.5 7.5 14.5 Z" stroke="none"/>
        <path d="M 7.5 1 C 3.915889739990234 1 1 3.915889739990234 1 7.5 C 1 11.08411026000977 3.915889739990234 14 7.5 14 C 11.08411026000977 14 14 11.08411026000977 14 7.5 C 14 3.915889739990234 11.08411026000977 1 7.5 1 M 7.5 0 C 11.64213943481445 0 15 3.35785961151123 15 7.5 C 15 11.64212989807129 11.64213943481445 15 7.5 15 C 3.35785961151123 15 0 11.64212989807129 0 7.5 C 0 3.35785961151123 3.35785961151123 0 7.5 0 Z" stroke="none" fill="#fffef0"/>
      </g>
    </g>
    <g id="Group_223" data-name="Group 223" transform="translate(988.144 3674.949)">
      <g id="Subtraction_2-21" data-name="Subtraction 2" transform="translate(-0.144 0.051)" fill="#e84752">
        <path d="M 7.5 14.5 C 3.64018988609314 14.5 0.5 11.35980987548828 0.5 7.5 C 0.5 3.64018988609314 3.64018988609314 0.5 7.5 0.5 C 11.35980987548828 0.5 14.5 3.64018988609314 14.5 7.5 C 14.5 11.35980987548828 11.35980987548828 14.5 7.5 14.5 Z" stroke="none"/>
        <path d="M 7.5 1 C 3.915889739990234 1 1 3.915889739990234 1 7.5 C 1 11.08411026000977 3.915889739990234 14 7.5 14 C 11.08411026000977 14 14 11.08411026000977 14 7.5 C 14 3.915889739990234 11.08411026000977 1 7.5 1 M 7.5 0 C 11.64213943481445 0 15 3.35785961151123 15 7.5 C 15 11.64212989807129 11.64213943481445 15 7.5 15 C 3.35785961151123 15 0 11.64212989807129 0 7.5 C 0 3.35785961151123 3.35785961151123 0 7.5 0 Z" stroke="none" fill="#fffef0"/>
      </g>
    </g>
    <g id="Group_224" data-name="Group 224" transform="translate(963.674 3681.066)">
      <g id="Subtraction_2-22" data-name="Subtraction 2" transform="translate(0.326 -0.066)" fill="#e84752">
        <path d="M 7.5 14.5 C 3.64018988609314 14.5 0.5 11.35980987548828 0.5 7.5 C 0.5 3.64018988609314 3.64018988609314 0.5 7.5 0.5 C 11.35980987548828 0.5 14.5 3.64018988609314 14.5 7.5 C 14.5 11.35980987548828 11.35980987548828 14.5 7.5 14.5 Z" stroke="none"/>
        <path d="M 7.5 1 C 3.915889739990234 1 1 3.915889739990234 1 7.5 C 1 11.08411026000977 3.915889739990234 14 7.5 14 C 11.08411026000977 14 14 11.08411026000977 14 7.5 C 14 3.915889739990234 11.08411026000977 1 7.5 1 M 7.5 0 C 11.64213943481445 0 15 3.35785961151123 15 7.5 C 15 11.64212989807129 11.64213943481445 15 7.5 15 C 3.35785961151123 15 0 11.64212989807129 0 7.5 C 0 3.35785961151123 3.35785961151123 0 7.5 0 Z" stroke="none" fill="#fffef0"/>
      </g>
    </g>
    <g id="Group_225" data-name="Group 225" transform="translate(968.262 3655.067)">
      <g id="Subtraction_2-23" data-name="Subtraction 2" transform="translate(-0.262 -0.067)" fill="#e84752">
        <path d="M 7.5 14.5 C 3.64018988609314 14.5 0.5 11.35980987548828 0.5 7.5 C 0.5 3.64018988609314 3.64018988609314 0.5 7.5 0.5 C 11.35980987548828 0.5 14.5 3.64018988609314 14.5 7.5 C 14.5 11.35980987548828 11.35980987548828 14.5 7.5 14.5 Z" stroke="none"/>
        <path d="M 7.5 1 C 3.915889739990234 1 1 3.915889739990234 1 7.5 C 1 11.08411026000977 3.915889739990234 14 7.5 14 C 11.08411026000977 14 14 11.08411026000977 14 7.5 C 14 3.915889739990234 11.08411026000977 1 7.5 1 M 7.5 0 C 11.64213943481445 0 15 3.35785961151123 15 7.5 C 15 11.64212989807129 11.64213943481445 15 7.5 15 C 3.35785961151123 15 0 11.64212989807129 0 7.5 C 0 3.35785961151123 3.35785961151123 0 7.5 0 Z" stroke="none" fill="#fffef0"/>
      </g>
    </g>
  </g>
</svg>
